<svg width="16" height="16" fill="none" xmlns="http://www.w3.org/2000/svg"><mask id="b" fill="#fff"><path d="M.25 5.12c0 4.25 2.4 6.52 4.75 8.55.17.15 1.5 1.39 3 1.39s2.92-1.32 3-1.39c2.29-1.97 4.75-4.3 4.75-8.55C15.75.87 11.6-2.15 8 1.94 4.4-2.15.25.87.25 5.12Z"/></mask><path d="M.25 5.12c0 4.25 2.4 6.52 4.75 8.55.17.15 1.5 1.39 3 1.39s2.92-1.32 3-1.39c2.29-1.97 4.75-4.3 4.75-8.55C15.75.87 11.6-2.15 8 1.94 4.4-2.15.25.87.25 5.12Z" fill="url(#a)" stroke="#000" stroke-opacity=".9" stroke-width="1.5" mask="url(#b)"/><rect x="4.5" y="4" width="2" height="2" rx=".5" fill="#000" fill-opacity=".9"/><rect x="9.5" y="4" width="2" height="2" rx=".5" fill="#000" fill-opacity=".9"/><g opacity=".66"><circle cx="12.5" cy="7" r="2.5" fill="url(#c)"/><circle cx="12.5" cy="7" r="2.5" fill="url(#d)"/></g><g opacity=".66"><circle cx="3.5" cy="7" r="2.5" fill="url(#e)"/><circle cx="3.5" cy="7" r="2.5" fill="url(#f)"/></g><path d="M13 8c-.1.75-.5 2-2 2.5-.75.25-1.75.25-2.75.25M3.5 8c.1.75.5 2 2 2.5.75.25 1.75.25 2.75.25" stroke="#000" stroke-opacity=".9"/><g filter="url(#g)"><ellipse cx="13.5" cy="7.5" rx="1.5" ry="1.75" fill="#EE5600"/></g><g filter="url(#h)"><ellipse cx="3" cy="7.5" rx="1.5" ry="1.75" fill="#EE5600"/></g><g opacity=".75"><mask id="i" fill="#fff"><path d="M9.87 2.67A2.62 2.62 0 0 1 13 4l-.74-.5a3 3 0 0 0-1.67-.5H8.81l1.06-.33Z"/></mask><path d="M9.87 2.67A2.62 2.62 0 0 1 13 4l-.74-.5a3 3 0 0 0-1.67-.5H8.81l1.06-.33Z" fill="#D9D9D9" stroke="#000" stroke-opacity=".9" stroke-width="2" mask="url(#i)"/></g><g opacity=".75"><mask id="j" fill="#fff"><path d="M4.87 2.67A2.62 2.62 0 0 1 8 4l-.74-.5A3 3 0 0 0 5.59 3H3.81l1.06-.33Z"/></mask><path d="M4.87 2.67A2.62 2.62 0 0 1 8 4l-.74-.5A3 3 0 0 0 5.59 3H3.81l1.06-.33Z" fill="#D9D9D9" stroke="#000" stroke-opacity=".9" stroke-width="2" mask="url(#j)"/></g><defs><radialGradient id="a" cx="0" cy="0" r="1" gradientUnits="userSpaceOnUse" gradientTransform="matrix(6.27581 10.55754 -10.70763 6.36503 5.1 1.88)"><stop stop-color="#FAFAE3"/><stop offset=".23" stop-color="#FFFFA2"/><stop offset=".66" stop-color="#FFEF06"/><stop offset="1" stop-color="#C7B300"/></radialGradient><radialGradient id="c" cx="0" cy="0" r="1" gradientUnits="userSpaceOnUse" gradientTransform="matrix(0 2.5 -2.5 0 12.5 7)"><stop stop-color="#FF2C55" stop-opacity=".7"/><stop offset=".71" stop-color="#F59FB0" stop-opacity=".5"/><stop offset="1" stop-color="#E9B1BC" stop-opacity="0"/></radialGradient><radialGradient id="d" cx="0" cy="0" r="1" gradientUnits="userSpaceOnUse" gradientTransform="matrix(0 2.5 -2.5 0 12.5 7)"><stop stop-color="#FF2C55"/><stop offset=".71" stop-color="#F5B39F" stop-opacity=".33"/><stop offset="1" stop-color="#E9C5B1" stop-opacity="0"/></radialGradient><radialGradient id="e" cx="0" cy="0" r="1" gradientUnits="userSpaceOnUse" gradientTransform="matrix(0 2.5 -2.5 0 3.5 7)"><stop stop-color="#FF2C55" stop-opacity=".7"/><stop offset=".71" stop-color="#F59FB0" stop-opacity=".5"/><stop offset="1" stop-color="#E9B1BC" stop-opacity="0"/></radialGradient><radialGradient id="f" cx="0" cy="0" r="1" gradientUnits="userSpaceOnUse" gradientTransform="matrix(0 2.5 -2.5 0 3.5 7)"><stop stop-color="#FF2C55"/><stop offset=".71" stop-color="#F5B39F" stop-opacity=".33"/><stop offset="1" stop-color="#E9C5B1" stop-opacity="0"/></radialGradient><filter id="g" x="11" y="4.75" width="5" height="5.5" filterUnits="userSpaceOnUse" color-interpolation-filters="sRGB"><feFlood flood-opacity="0" result="BackgroundImageFix"/><feBlend mode="normal" in="SourceGraphic" in2="BackgroundImageFix" result="shape"/><feGaussianBlur stdDeviation=".5" result="effect1_foregroundBlur_232_2711"/></filter><filter id="h" x=".5" y="4.75" width="5" height="5.5" filterUnits="userSpaceOnUse" color-interpolation-filters="sRGB"><feFlood flood-opacity="0" result="BackgroundImageFix"/><feBlend mode="normal" in="SourceGraphic" in2="BackgroundImageFix" result="shape"/><feGaussianBlur stdDeviation=".5" result="effect1_foregroundBlur_232_2711"/></filter></defs></svg>