<svg width="16" height="16" fill="none" xmlns="http://www.w3.org/2000/svg"><circle cx="8" cy="8" r="7.9" fill="url(#a)"/><circle cx="8" cy="8" r="7.63" stroke="#000" stroke-opacity=".9" stroke-width=".75"/><circle cx="4" cy="9" r="3" fill="url(#b)"/><circle cx="4" cy="9" r="3" fill="url(#c)"/><circle cx="12" cy="9" r="3" fill="url(#d)"/><circle cx="12" cy="9" r="3" fill="url(#e)"/><rect x="3.5" y="4.5" width="2" height="2" rx=".5" fill="#000" fill-opacity=".9"/><rect x="9.5" y="4.5" width="2" height="2" rx=".5" fill="#000" fill-opacity=".9"/><path d="M12 1.5 13.5 3H9l3-1.5Zm-8 0L2.5 3H7L4 1.5Z" fill="#000" fill-opacity=".9"/><ellipse cx="7.5" cy="10.25" rx="3.25" ry="3.75" transform="rotate(-10 7.5 10.25)" fill="url(#f)"/><path d="M10.2 9.77c.33 1.84-.7 3.43-2.14 3.68-1.43.25-2.94-.88-3.27-2.72-.32-1.84.71-3.43 2.15-3.68 1.43-.25 2.94.89 3.27 2.72Z" stroke="#000" stroke-opacity=".9"/><defs><radialGradient id="a" cx="0" cy="0" r="1" gradientUnits="userSpaceOnUse" gradientTransform="rotate(59.99 .72 5.4) scale(12.7918)"><stop stop-color="#fff"/><stop offset=".23" stop-color="#F0EDEE"/><stop offset=".66" stop-color="#DCD9DA"/><stop offset="1" stop-color="#AFACAD"/></radialGradient><radialGradient id="b" cx="0" cy="0" r="1" gradientUnits="userSpaceOnUse" gradientTransform="matrix(0 3 -3 0 4 9)"><stop stop-color="#FF2C55" stop-opacity=".7"/><stop offset=".71" stop-color="#F59FB0" stop-opacity=".5"/><stop offset="1" stop-color="#E9B1BC" stop-opacity="0"/></radialGradient><radialGradient id="c" cx="0" cy="0" r="1" gradientUnits="userSpaceOnUse" gradientTransform="matrix(0 3 -3 0 4 9)"><stop stop-color="#FF2C55" stop-opacity=".7"/><stop offset=".71" stop-color="#F59FB0" stop-opacity=".5"/><stop offset="1" stop-color="#E9B1BC" stop-opacity="0"/></radialGradient><radialGradient id="d" cx="0" cy="0" r="1" gradientUnits="userSpaceOnUse" gradientTransform="matrix(0 3 -3 0 12 9)"><stop stop-color="#FF2C55" stop-opacity=".7"/><stop offset=".71" stop-color="#F59FB0" stop-opacity=".5"/><stop offset="1" stop-color="#E9B1BC" stop-opacity="0"/></radialGradient><radialGradient id="e" cx="0" cy="0" r="1" gradientUnits="userSpaceOnUse" gradientTransform="matrix(0 3 -3 0 12 9)"><stop stop-color="#FF2C55" stop-opacity=".7"/><stop offset=".71" stop-color="#F59FB0" stop-opacity=".5"/><stop offset="1" stop-color="#E9B1BC" stop-opacity="0"/></radialGradient><linearGradient id="f" x1="7.5" y1="6.5" x2="7.5" y2="14" gradientUnits="userSpaceOnUse"><stop stop-color="#FBEFF1"/><stop offset="1" stop-color="#C5C2C3"/></linearGradient></defs></svg>