<svg width="22" height="16" fill="none" xmlns="http://www.w3.org/2000/svg"><circle cx="8" cy="8" r="7.9" fill="url(#a)"/><circle cx="8" cy="8" r="7.63" stroke="#000" stroke-opacity=".9" stroke-width=".75"/><path opacity=".1" d="M4 5.5h3.5V6a.5.5 0 0 1-.5.5H4.5A.5.5 0 0 1 4 6v-.5Z" fill="#000" fill-opacity=".9"/><path d="M4 5c0-.27.22-.5.5-.5H7c.28 0 .5.23.5.5v.5H4V5Z" fill="#000" fill-opacity=".9"/><path opacity=".1" d="M9.5 5.5H13V6a.5.5 0 0 1-.5.5H10a.5.5 0 0 1-.5-.5v-.5Z" fill="#000" fill-opacity=".9"/><path d="M9.5 5c0-.27.22-.5.5-.5h2.5c.28 0 .5.23.5.5v.5H9.5V5Z" fill="#000" fill-opacity=".9"/><path d="M13 7.5c-.1.75-.8 2.05-2.17 2.5-.75.25-1.33.25-2.33.25M4 7.5c.1.75.8 2.05 2.17 2.5.75.25 1.33.25 2.33.25" stroke="#000" stroke-opacity=".9" stroke-width="1.1"/><path d="M20.5 1v5.5a1 1 0 0 1-1 1h-1M15 1v5.5a1 1 0 0 0 1 1h1m.75-6.5v15" stroke="#636363" stroke-width="1.5"/><path d="M20.6 8.45c-1-2.34-2.3-1.12-3.59-.67h-1.44c-.4 0-.71.33-.71.73 0 .4.32.74.71.74h-.36c-.4 0-.71.32-.71.73 0 .4.32.73.71.73h.72c-.4 0-.71.33-.71.74 0 .4.32.73.7.73h.55c-.4 0-.71.33-.71.73 0 .41.31.74.7.74h2.17c.63 0 1.44-.38 1.97-1.43.52-1 .54-2.51 0-3.77Z" fill="url(#b)" stroke="#000" stroke-opacity=".9" stroke-width=".75" stroke-linecap="round" stroke-linejoin="round"/><defs><radialGradient id="a" cx="0" cy="0" r="1" gradientUnits="userSpaceOnUse" gradientTransform="rotate(59.99 .72 5.4) scale(12.7918)"><stop stop-color="#FAFAE3"/><stop offset=".23" stop-color="#FFFFA2"/><stop offset=".66" stop-color="#FFEF06"/><stop offset="1" stop-color="#C7B300"/></radialGradient><linearGradient id="b" x1="19.92" y1="13.65" x2="16.35" y2="8.97" gradientUnits="userSpaceOnUse"><stop stop-color="#C8B401"/><stop offset=".6" stop-color="#FFF42F"/><stop offset="1" stop-color="#FCFCCB"/></linearGradient></defs></svg>