<svg width="16" height="16" fill="none" xmlns="http://www.w3.org/2000/svg"><circle cx="8" cy="8" r="7.9" fill="url(#a)"/><circle cx="8" cy="8" r="7.63" stroke="#000" stroke-opacity=".9" stroke-width=".75"/><path d="M9.5 4.5c0-.27.22-.5.5-.5h1c.28 0 .5.23.5.5V6h-2V4.5Z" fill="#000" fill-opacity=".9"/><path d="M9.5 6h2a1 1 0 1 1-2 0ZM5.5 6h2a1 1 0 0 1-2 0Z" fill="#00F"/><path d="M5.5 4.5c0-.27.22-.5.5-.5h1c.28 0 .5.23.5.5V6h-2V4.5Z" fill="#000" fill-opacity=".9"/><path d="M13 12.5c-.25-2.25-1.7-2.75-2.35-3-.65-.25-2-.25-2.15-.25M4 12.5c.25-2.25 1.7-2.75 2.35-3 .65-.25 2-.25 2.15-.25" stroke="#000" stroke-opacity=".9" stroke-width="1.1"/><path d="M11.25 6.25c0 .03.02.83.26 1.05.24.23.63.23.87 0a.57.57 0 0 0 0-.83c-.24-.22-1.07-.24-1.1-.25-.02 0-.03.01-.03.03ZM12.38 7.6c0 .03-.12.98.12 1.29.25.31.71.37 1.04.14a.69.69 0 0 0 .14-.99c-.24-.3-1.22-.46-1.27-.47l-.03.02ZM13.52 9.25c-.01.05-.29 1.14-.05 1.52.23.4.76.53 1.17.3a.8.8 0 0 0 .32-1.12c-.24-.39-1.36-.7-1.4-.72-.02 0-.04 0-.04.02ZM14.4 12.13c-.01.04-.25.97-.05 1.3.2.34.66.46 1.01.26s.47-.62.27-.96c-.2-.33-1.16-.6-1.2-.61l-.03.01ZM5.39 6.58c0 .04-.03 1-.31 1.27a.76.76 0 0 1-1.04 0 .69.69 0 0 1 0-1c.28-.27 1.28-.3 1.32-.3.02 0 .03.02.03.03ZM3.91 8.05c0 .04-.02 1-.3 1.27a.76.76 0 0 1-1.05 0 .69.69 0 0 1 0-1c.28-.27 1.28-.3 1.33-.3.01 0 .02.01.02.03ZM2.19 10.83c0 .04-.03 1-.3 1.26a.76.76 0 0 1-1.05 0 .69.69 0 0 1 0-1c.28-.27 1.28-.29 1.32-.29.02 0 .03.01.03.03ZM2.59 12.95c.02.04.42.92.28 1.27a.75.75 0 0 1-.95.43.7.7 0 0 1-.44-.9c.14-.37 1.04-.8 1.07-.81l.04.01Z" fill="#00F"/><defs><radialGradient id="a" cx="0" cy="0" r="1" gradientUnits="userSpaceOnUse" gradientTransform="rotate(59.99 .72 5.4) scale(12.7918)"><stop stop-color="#FAFAE3"/><stop offset=".23" stop-color="#FFFFA2"/><stop offset=".66" stop-color="#FFEF06"/><stop offset="1" stop-color="#C7B300"/></radialGradient></defs></svg>