<svg width="16" height="16" fill="none" xmlns="http://www.w3.org/2000/svg"><circle cx="8" cy="8" r="7.9" fill="url(#a)"/><circle cx="8" cy="8" r="7.63" stroke="#000" stroke-opacity=".9" stroke-width=".75"/><path fill-rule="evenodd" clip-rule="evenodd" d="M5.14 3a.16.16 0 0 0-.11.28c.14.14.32.25.51.32l.2.07v.83c0 .28.23.5.5.5h1a.5.5 0 0 0 .5-.5v-1a.5.5 0 0 0-.5-.5h-2.1ZM11.84 3c.14 0 .22.18.11.28-.14.14-.32.25-.51.32l-.2.07v.83a.5.5 0 0 1-.5.5h-1a.5.5 0 0 1-.5-.5v-1c0-.28.22-.5.5-.5h2.1Z" fill="#000" fill-opacity=".9"/><path d="M13.25 11.25C13 9 12 8.39 10.83 8c-.75-.25-1.33-.25-2.33-.25M3.75 11.25C4 9 5 8.39 6.17 8c.75-.25 1.33-.25 2.33-.25" stroke="#000" stroke-opacity=".9" stroke-width="1.1"/><defs><radialGradient id="a" cx="0" cy="0" r="1" gradientUnits="userSpaceOnUse" gradientTransform="rotate(59.99 .72 5.4) scale(12.7918)"><stop stop-color="#FCCADD"/><stop offset=".23" stop-color="#FF90B2"/><stop offset=".66" stop-color="#EF3D60"/><stop offset="1" stop-color="#AE0B2A"/></radialGradient></defs></svg>