<svg width="16" height="16" fill="none" xmlns="http://www.w3.org/2000/svg"><circle cx="8" cy="8" r="7.9" fill="url(#a)"/><circle cx="8" cy="8" r="7.63" stroke="#000" stroke-opacity=".9" stroke-width=".75"/><path d="M5.5 4.8h1c.3 0 .5.19.5.47v.94c0 .29-.2.47-.5.47h-1c-.3 0-.5-.18-.5-.47v-.94c0-.19.2-.47.5-.47ZM10.5 4.8h1c.3 0 .5.19.5.47v.94c0 .29-.2.47-.5.47h-1c-.3 0-.5-.18-.5-.47v-.94c0-.19.2-.47.5-.47Z" fill="#000" fill-opacity=".9"/><rect x="4.5" y="12" width="8" height="1" rx=".25" fill="#000" fill-opacity=".9"/><defs><radialGradient id="a" cx="0" cy="0" r="1" gradientUnits="userSpaceOnUse" gradientTransform="rotate(59.99 .72 5.4) scale(12.7918)"><stop stop-color="#FAFAE3"/><stop offset=".23" stop-color="#FFFFA2"/><stop offset=".66" stop-color="#FFEF06"/><stop offset="1" stop-color="#C7B300"/></radialGradient></defs></svg>