<svg width="16" height="16" fill="none" xmlns="http://www.w3.org/2000/svg"><circle cx="8" cy="8" r="7.9" fill="url(#a)"/><circle cx="8" cy="8" r="7.63" stroke="#000" stroke-opacity=".9" stroke-width=".75"/><rect x="5.5" y="4.5" width="2" height="2" rx=".5" fill="#000" fill-opacity=".9"/><rect x="9.5" y="4.5" width="2" height="2" rx=".5" fill="#000" fill-opacity=".9"/><path d="M6.25 9.12c0 .93.81 1.5 1.48 1.94.23.16.54.24.77.24.22 0 .54-.08.77-.24.67-.44 1.48-1 1.48-1.94 0-.93-1.24-1.59-2.25-.7-1.01-.89-2.25-.23-2.25.7Z" fill="#BF0300"/><path d="M10.75 9.7c0-1-1.24-1.7-2.25-.75C7.49 8 6.25 8.7 6.25 9.7a15.2 15.2 0 0 0 4.5 0Z" fill="#830C00"/><defs><radialGradient id="a" cx="0" cy="0" r="1" gradientUnits="userSpaceOnUse" gradientTransform="rotate(59.99 .72 5.4) scale(12.7918)"><stop stop-color="#FAFAE3"/><stop offset=".23" stop-color="#FFFFA2"/><stop offset=".66" stop-color="#FFEF06"/><stop offset="1" stop-color="#C7B300"/></radialGradient></defs></svg>