<svg xmlns="http://www.w3.org/2000/svg" width="18" height="18"><path fill="#dae64a" d="M17.471 5.96v.022l-4.914 6.63a1.238 1.238 0 0 1-1.062.568h-4.82c-.642 0-.913-.178-1.181-.853L4.034 7.62a1.306 1.306 0 0 1 .102-1.252L9.013 0h-.04a9 9 0 1 0 8.498 5.96z"/><path d="m4.033 7.621 1.46 4.706c.272.675.543.853 1.182.853h4.82a1.238 1.238 0 0 0 1.062-.569l4.914-6.629V5.96A9.008 9.008 0 0 0 9.035 0L4.158 6.37a1.306 1.306 0 0 0-.125 1.251Zm1.994-1.61h5.96v1.94H9.995v3.3H8.057v-3.3h-2.03Z"/><path fill="#fff" d="M9.994 7.949h2.005V6.012H6.027v1.937h2.027v3.302h1.94z"/></svg>
