<svg width="16" height="16" fill="none" xmlns="http://www.w3.org/2000/svg"><circle cx="8" cy="8" r="7.9" fill="url(#a)"/><circle cx="8" cy="8" r="7.63" stroke="#000" stroke-opacity=".9" stroke-width=".75"/><path d="M12.75 8c-.1.75-.5 2-2 2.5-.75.25-1.5.25-2.5.25M3.75 8c.1.75.5 2 2 2.5.75.25 1.5.25 2.5.25" stroke="#000" stroke-opacity=".9" stroke-width="1.1"/><path opacity=".9" fill-rule="evenodd" clip-rule="evenodd" d="M3 5.1a2.3 2.3 0 0 1-.36-.08c-.32-.1-.59-.3-.75-.6a1.97 1.97 0 0 1-.19-.85V2.6h1.1v.93c0 .24.04.34.06.38 0 0 .02.03.12.07.13.04.37.07.77.07h8.75c.4 0 .64-.03.77-.07.1-.04.12-.06.12-.07a.98.98 0 0 0 .06-.38V2.6h1.1v.96c-.01.27-.04.58-.19.85a1.24 1.24 0 0 1-.86.63v.45a.5.5 0 0 1-.5.5h-.5v.75c0 .14-.11.25-.25.25h-2.5a.25.25 0 0 1-.25-.25V6H7v.75c0 .14-.11.25-.25.25h-2.5A.25.25 0 0 1 4 6.75V6h-.5a.5.5 0 0 1-.5-.5v-.4Z" fill="#000"/><defs><radialGradient id="a" cx="0" cy="0" r="1" gradientUnits="userSpaceOnUse" gradientTransform="rotate(59.99 .72 5.4) scale(12.7918)"><stop stop-color="#FAFAE3"/><stop offset=".23" stop-color="#FFFFA2"/><stop offset=".66" stop-color="#FFEF06"/><stop offset="1" stop-color="#C7B300"/></radialGradient></defs></svg>