<svg width="16" height="16" fill="none" xmlns="http://www.w3.org/2000/svg"><circle cx="8" cy="8" r="7.9" fill="url(#a)"/><circle cx="8" cy="8" r="7.63" stroke="#000" stroke-opacity=".9" stroke-width=".75"/><path d="M10 4.5a.5.5 0 0 0-.5.5v1c0 .28.22.5.5.5h2a.5.5 0 0 0 0-1 .5.5 0 0 1-.5-.5.5.5 0 0 0-.5-.5h-1ZM7 4.5c.28 0 .5.23.5.5v1a.5.5 0 0 1-.5.5H5a.5.5 0 0 1 0-1 .5.5 0 0 0 .5-.5c0-.27.22-.5.5-.5h1Z" fill="#000" fill-opacity=".9"/><path d="M12.75 8.75c-.1.75-.75 1.65-1.75 2.15-.7.36-1.75.35-2.75.35M3.75 8.75c.1.75.75 1.65 1.75 2.15.7.36 1.75.35 2.75.35" stroke="#000" stroke-opacity=".9"/><path d="M5.5 6.5h1V8a.5.5 0 0 1-1 0V6.5ZM10.5 6.5h1V7a.5.5 0 0 1-1 0v-.5Z" fill="#7C7958"/><defs><radialGradient id="a" cx="0" cy="0" r="1" gradientUnits="userSpaceOnUse" gradientTransform="rotate(59.99 .72 5.4) scale(12.7918)"><stop stop-color="#FAFAE3"/><stop offset=".23" stop-color="#FFFFA2"/><stop offset=".66" stop-color="#FFEF06"/><stop offset="1" stop-color="#C7B300"/></radialGradient></defs></svg>