<svg width="16" height="16" fill="none" xmlns="http://www.w3.org/2000/svg"><circle cx="8" cy="8" r="7.9" fill="url(#a)"/><circle cx="8" cy="8" r="7.63" stroke="#000" stroke-opacity=".9" stroke-width=".75"/><rect x="5.25" y="4" width="2" height="2" rx=".5" fill="#000" fill-opacity=".9"/><rect x="9.25" y="4" width="2" height="2" rx=".5" fill="#000" fill-opacity=".9"/><path d="M13 7.5c-.1.75-.75 2-2.25 2.5-.75.25-1.5.25-2.5.25M3.5 7.5c.1.75.75 2 2.25 2.5.75.25 1.5.25 2.5.25" stroke="#000" stroke-opacity=".9" stroke-width="1.1"/><path d="m5 9 1 .23a10 10 0 0 0 4.5 0l1-.23s-.75 3.75-3.25 3.75S5 9 5 9Z" fill="#E72000"/><path d="m5.5 10.5.08.02c.83.28 1.66.28 2.62.28h.1c.96 0 1.79 0 2.62-.28l.08-.02c.36-.8.5-1.5.5-1.5l-.73.2-.4.09c-.41.07-1.39.21-2.17.21-.72 0-1.51-.12-1.92-.2-.19-.03-.37-.08-.55-.13L5 9s.14.7.5 1.5Z" fill="#822415"/><path d="M4.1 11.49c.02.03.58.83.5 1.2-.06.39-.45.64-.86.58a.71.71 0 0 1-.61-.82c.07-.38.89-.95.92-.97h.04Z" fill="#00A8EE"/><path d="M4.37 10.76c.04.01 1.02.28 1.22.61.2.34.08.77-.27.97a.78.78 0 0 1-1.03-.26c-.2-.33.04-1.26.05-1.3l.03-.02ZM3.23 11.81c0 .04-.03 1-.32 1.27a.78.78 0 0 1-1.06 0 .68.68 0 0 1 0-1c.3-.27 1.3-.3 1.35-.3.02 0 .03.02.03.03Z" fill="#00A8EE"/><path d="M3.23 12.75c0 .04-.03 1-.32 1.27a.78.78 0 0 1-1.06 0 .68.68 0 0 1 0-1c.3-.27 1.3-.3 1.35-.3.02 0 .03.02.03.03Z" fill="#00A8EE"/><path d="M5.48 9.46c0 .04-.03 1-.32 1.27a.78.78 0 0 1-1.06 0 .68.68 0 0 1 0-1c.3-.27 1.3-.3 1.35-.3.02 0 .03.02.03.03Z" fill="#00F"/><path d="M4.13 10.18c.02.04.43.92.29 1.28a.76.76 0 0 1-.96.42.7.7 0 0 1-.45-.9c.14-.36 1.05-.79 1.09-.8h.03Z" fill="#00F"/><path d="M3.27 11.42c.03.03.66.78.63 1.16-.04.4-.4.68-.82.65-.4-.04-.71-.38-.68-.77.04-.38.8-1.01.83-1.04h.04Z" fill="#00F"/><path d="M11.72 10.54c-.02.04-.59.84-.51 1.21.07.39.46.64.86.57.41-.06.68-.43.61-.81-.07-.38-.89-.95-.92-.97h-.04Z" fill="#00A8EE"/><path d="M11.6 9.82c-.05.01-1.02.28-1.22.61-.21.34-.09.77.27.97.36.2.82.08 1.02-.26.2-.33-.03-1.26-.04-1.3l-.04-.02ZM13.35 11.81c0 .04.02 1 .3 1.27.3.28.78.28 1.07 0 .3-.28.3-.72 0-1-.29-.27-1.3-.3-1.35-.3l-.02.03Z" fill="#00A8EE"/><path d="M12.97 11.71c-.04.03-.85.6-.93.97-.07.39.2.75.61.82.41.07.8-.19.87-.57.07-.38-.49-1.18-.51-1.2a.03.03 0 0 0-.04-.02Z" fill="#00A8EE"/><path d="M11.1 9.46c0 .04.02 1 .3 1.27.3.27.78.27 1.07 0 .3-.28.3-.73 0-1-.29-.27-1.3-.3-1.35-.3l-.02.03Z" fill="#00F"/><path d="M12.44 10.18c-.02.04-.42.92-.28 1.28.14.36.57.55.96.42a.7.7 0 0 0 .45-.9c-.14-.36-1.05-.79-1.1-.8h-.03Z" fill="#00F"/><path d="M13.3 11.42c-.02.03-.66.78-.62 1.16.03.4.4.68.8.65.42-.04.73-.38.7-.77-.04-.38-.8-1.01-.84-1.04h-.04Z" fill="#00F"/><path d="M13.83 12.42c-.03.03-.66.78-.63 1.16.04.39.4.68.82.64.4-.03.71-.38.68-.76-.04-.38-.8-1.02-.83-1.04h-.04ZM12.84 11.43c-.04 0-1.04.2-1.27.51a.68.68 0 0 0 .19.98c.34.23.8.15 1.04-.17.23-.31.08-1.26.08-1.3l-.04-.02Z" fill="#00F"/><defs><radialGradient id="a" cx="0" cy="0" r="1" gradientUnits="userSpaceOnUse" gradientTransform="rotate(59.99 .72 5.4) scale(12.7918)"><stop stop-color="#FAFAE3"/><stop offset=".23" stop-color="#FFFFA2"/><stop offset=".66" stop-color="#FFEF06"/><stop offset="1" stop-color="#C7B300"/></radialGradient></defs></svg>