<svg width="20" height="16" fill="none" xmlns="http://www.w3.org/2000/svg"><path d="M8.89.9C9.82.9 10.09 1.8 11 2c1.34.32 1.8-.2 3.16-.4 1.37-.22 2.22-1.51 3.34-.7.73.55-.33 1.23-.34 2.13-.02 1.25.57 2.22-.66 2.47-.38.08-.5 0-.5 0l-5.5 2-6.61 8.4S2.5 15.5 2 15 .93 14.17.89 13.4c-.05-.97 1.07-1.09 1.61-1.9.82-1.24.63-2.3 1.5-3.5.64-.9 1.48-1.02 2-2 .56-1.05-.07-1.96.5-3C7.1 1.91 7.65.94 8.89.9Z" fill="#000" fill-opacity=".9"/><path d="M8.6 3.03c.09-.47.41-.26.71-.26.36 0 .1-.07.64.33.55.4.55 1.4.55 1.4S11 6 11.5 6s1.56-.19 2.63-.69c1.06-.5.87-.25 1.87-.8V6c0 .5.5 2 .5 2s3 4 2.5 5.5-1.5 2.5-2 2.5h-3c-1 0-2.3-3-2.5-2.5C11.3 14 10 16 10 16H4c-.5 0-1.5-.5-1-1.5.25-.5.76-2.8 2-5 1.28-2.28 3.28-4.45 3.28-4.45s-.17-.58.03-1.12c.15-.4.19-.44.28-.9Z" fill="url(#a)"/><path d="M18 10.5s.63.25.63 2.25S17.5 16 17 16h-3c-1 0-2-2.5-1.5-2s.5-1.25.5-1.25c1-.5 4.5.25 5-2.25Z" fill="#C2BC34"/><mask id="b" fill="#fff"><path d="M8.6 3.03c.09-.47.41-.26.71-.26.36 0 .1-.07.64.33.55.4.55 1.4.55 1.4S11 6 11.5 6s1.56-.19 2.63-.69c1.06-.5.87-.25 1.87-.8V6c0 .5.5 2 .5 2s3 4 2.5 5.5-1.5 2.5-2 2.5h-3c-1 0-3.3-3-3.5-2.5-.2.5-.5 2.5-.5 2.5H4c-.5 0-1.5-.5-1-1.5s5.28-9.45 5.28-9.45-.17-.58.03-1.12c.15-.4.19-.44.28-.9Z"/></mask><path d="M8.6 3.03c.09-.47.41-.26.71-.26.36 0 .1-.07.64.33.55.4.55 1.4.55 1.4S11 6 11.5 6s1.56-.19 2.63-.69c1.06-.5.87-.25 1.87-.8V6c0 .5.5 2 .5 2s3 4 2.5 5.5-1.5 2.5-2 2.5h-3c-1 0-3.3-3-3.5-2.5-.2.5-.5 2.5-.5 2.5H4c-.5 0-1.5-.5-1-1.5s5.28-9.45 5.28-9.45-.17-.58.03-1.12c.15-.4.19-.44.28-.9Z" stroke="#000" stroke-opacity=".9" stroke-width="1.5" mask="url(#b)"/><path d="M7 9c0 1.94-.03 3.88-.47 4.13-.34.19-1.6-.13-1.6-.13l-.21 1-.78 2s-1-.5-1.5-1-1.08-.83-1.11-1.6c-.05-.96 1.07-1.08 1.6-1.9.83-1.24.64-2.3 1.5-3.5.18-.23 3.6-2.7 3.91-2.9.33-.22-.2 1.57.16 1.46.62-.18-1.06.14-.88.63.32.81.83 1.46.25 2.5C7.6 10.2 7 7.76 7 9Z" fill="#000" fill-opacity=".9"/><path d="M9.45 10.34s-.14.82.05 1.16c.22.38-.2.77 1.8 1.77" stroke="#000" stroke-opacity=".9" stroke-width=".5"/><ellipse cx="11.25" cy="8.25" rx=".75" ry="1.25" fill="#000" fill-opacity=".9"/><ellipse cx="14.72" cy="14.07" rx=".5" ry=".75" transform="rotate(-45 14.72 14.07)" fill="#000" fill-opacity=".9"/><defs><radialGradient id="a" cx="0" cy="0" r="1" gradientUnits="userSpaceOnUse" gradientTransform="rotate(148.57 5.98 6.54) scale(10.5475 11.4656)"><stop stop-color="#FAFAE3"/><stop offset=".23" stop-color="#FFFFA2"/><stop offset=".66" stop-color="#FFEF06"/><stop offset="1" stop-color="#FFE421"/></radialGradient></defs></svg>