<svg width="28" height="19" fill="none" xmlns="http://www.w3.org/2000/svg"><circle cx="8" cy="10" r="7.9" fill="url(#a)"/><circle cx="8" cy="10" r="7.6" stroke="#000" stroke-opacity=".9" stroke-width=".8"/><rect x="5.5" y="6" width="2" height="2" rx=".5" fill="#000" fill-opacity=".9"/><rect x="9.5" y="6" width="2" height="2" rx=".5" fill="#000" fill-opacity=".9"/><path d="M9.5 12s-3 .3-3.8 0c-.8-.4-1-.9-1.5-1.3l.4-1.3c.2-.6.8-1.1 1.4-1.2.7 0 1.4 0 1.8.3C9 9.5 9.5 12 9.5 12Z" fill="url(#b)"/><path d="M13 9.5c-.1.8-.8 2-2.2 2.5-.7.3-1.3.3-2.3.3M4 9.5c.1.8.8 2 2.2 2.5.7.3 1.3.3 2.3.3" stroke="#000" stroke-opacity=".9" stroke-width="1.1"/><g clip-path="url(#c)"><path d="M23.3 4.5c-2.2-.4-2.2.1-2.2.1l.2 1.6h1.6c1.2-.2 1.5 1.4 1.6 2.1 0 .8 0 2-1.2 2l-1.6.5.1 1.7 2.4-.6c1.6-.7 2-2.4 1.8-3.7-.1-1.3-.6-3.3-2.7-3.7Z" fill="url(#d)"/><mask id="g" fill="#fff"><path fill-rule="evenodd" clip-rule="evenodd" d="M11.7 4.6c.2-.3 2.3-2.3 5-2.5 1.4-.1 4 .5 5.2 1.6.3.2.4.5.4.9l.2 1.3c0 .4-.1.7-.3 1v.6c0 .2.1.4 0 .4l-.2.4.5 5.6.3.8.4 1.3c0 .5-.9 1.1-2 1.2l-6.4.6c-.8 0-2 .2-2.1-.9 0-.6 0-1.1.2-1.5v-.7l-.4-5.2a74.3 74.3 0 0 1-1-2.2l-.1-1.7c0-.4 0-.7.3-1Z"/></mask><path fill-rule="evenodd" clip-rule="evenodd" d="M11.7 4.6c.2-.3 2.3-2.3 5-2.5 1.4-.1 4 .5 5.2 1.6.3.2.4.5.4.9l.2 1.3c0 .4-.1.7-.3 1v.6c0 .2.1.4 0 .4l-.2.4.5 5.6.3.8.4 1.3c0 .5-.9 1.1-2 1.2l-6.4.6c-.8 0-2 .2-2.1-.9 0-.6 0-1.1.2-1.5v-.7l-.4-5.2a74.3 74.3 0 0 1-1-2.2l-.1-1.7c0-.4 0-.7.3-1Z" fill="url(#e)"/><path fill-rule="evenodd" clip-rule="evenodd" d="M11.7 4.6c.2-.3 2.3-2.3 5-2.5 1.4-.1 4 .5 5.2 1.6.3.2.4.5.4.9l.2 1.3c0 .4-.1.7-.3 1v.6c0 .2.1.4 0 .4l-.2.4.5 5.6.3.8.4 1.3c0 .5-.9 1.1-2 1.2l-6.4.6c-.8 0-2 .2-2.1-.9 0-.6 0-1.1.2-1.5v-.7l-.4-5.2a74.3 74.3 0 0 1-1-2.2l-.1-1.7c0-.4 0-.7.3-1Z" fill="url(#f)" fill-opacity=".2"/><path d="m11.7 4.6.6.5-.6-.5Zm10.2-.9.5-.6-.5.6Zm.4.9h.8-.8Zm.2 1.3h-.8.8Zm-.3 1-.6-.5.6.5Zm0 .6.7-.2-.7.2Zm0 .4-.1-.7h-.6v.6l.7.1Zm-.2.4-.6-.5-.1.3v.2h.7Zm.5 5.6h.8-.8Zm.3.8-.7.3.7-.3Zm-1.6 2.5v.8-.8Zm-6.4.6v.8-.8Zm-2.1-.9h.7-.7Zm.2-1.5-.8-.2.8.2Zm0-.7h.8-.7Zm-.4-5.2h.7v-.2l-.7.2Zm0-.2.6-.2-.7.2Zm-.5-.9-.5.5.5-.5Zm-.5-1h-.7.7Zm-.1-1.8.7-.1h-.7Zm5.2-4.3a10 10 0 0 0-3.8 1.4 11 11 0 0 0-1.7 1.4l1.2 1V5l.4-.3a9 9 0 0 1 1-.7 7 7 0 0 1 3-1.2l-.1-1.5Zm5.8 1.8a7.6 7.6 0 0 0-2.8-1.4c-1-.3-2.1-.4-3-.4l.1 1.5a7.2 7.2 0 0 1 4.7 1.5l1-1.2Zm.7 1.4c0-.5-.3-1-.7-1.4l-1 1.2.2.4 1.5-.2Zm.1 1.4-.1-1.4-1.5.2.1 1.3 1.5-.1Zm-.4 1.5c.3-.5.5-1 .4-1.5h-1.5l-.1.5 1.2 1Zm.1-.1a3.8 3.8 0 0 1 0-.2l-.1.3-1.2-1a1 1 0 0 0-.2.9v.4l1.5-.4Zm-.7 1.4a.9.9 0 0 0 .8-1v-.4l-1.5.4v.1l.1-.3.5-.3.1 1.5Zm.5 0 .2-.6-1.5-.3 1.3.9Zm.6 5.1-.5-5.6-1.5.1.5 5.7 1.5-.2Zm.2.6a7.6 7.6 0 0 1-.2-.5h-1.5c0 .4.2.8.3 1l1.4-.5Zm.4 1.5c0-.6-.3-1.1-.4-1.5L22 15l.3 1H24Zm-2.6 2a4 4 0 0 0 1.7-.5c.3-.1.5-.3.7-.6.1-.2.3-.5.2-.9l-1.5.2V16l-.2.2c-.2.1-.6.3-1 .3V18Zm-6.5.7 6.5-.6-.2-1.5-6.4.6.1 1.5Zm0 0-.1-1.5.1 1.5ZM12 17a1.7 1.7 0 0 0 1.4 1.5h1.5l-.1-1.4h-1l-.2-.1v-.2L12 17Zm.2-1.8L12 17l1.5-.2c0-.5 0-.8.2-1.2l-1.5-.4Zm.1-.4v.4l1.4.4.1-1-1.5.2Zm-.4-5.2.4 5.2 1.5-.1-.5-5.3-1.4.2Zm0 0v.2l1.4-.6v-.1l-1.5.5Zm-.3-.7v.2l.2.5 1.4-.5-.2-.6-.1-.3-.2-.3-1.1 1Zm-.7-1.5c0 .6.3 1.1.7 1.5l1-1a1 1 0 0 1-.2-.6h-1.5Zm-.2-1.8.2 1.8 1.5-.1-.2-1.8-1.5.1Zm.5-1.5c-.3.4-.5 1-.5 1.5l1.5-.1c0-.2 0-.3.2-.4L11 4Z" fill="#282828" fill-opacity=".9" mask="url(#g)"/><rect x="13.2" y="7.9" width="1" height="7" rx=".5" transform="rotate(-5 13.2 8)" fill="#D7BD00"/><rect x="15.2" y="7.7" width="1" height="7" rx=".5" transform="rotate(-5 15.2 7.7)" fill="#D7BD00"/><rect x="17.2" y="7.6" width="1" height="7" rx=".5" transform="rotate(-5 17.2 7.6)" fill="#D7BD00"/><rect x="19.2" y="7.4" width="1" height="7" rx=".5" transform="rotate(-5 19.2 7.4)" fill="#D7BD00"/><rect x="13.7" y="14.4" width="8" height="1" rx=".5" transform="rotate(-5 13.7 14.4)" fill="#D7BD00"/><mask id="i" fill="#fff"><path d="M16.7 2.6a7.5 7.5 0 0 0-4.3 2l-.3.9.2 1.5c0 .3.1.6.4.9.2.2.6 1.9 1 2 .3 0 .6-1.2.8-1.4.3-.1.5-.9.6-1.2a.7.7 0 0 0 1-.2 1.5 1.5 0 0 0 1.4.5c.2 0 .4 0 .6-.2l1.1 1.3c.2 0 .3.5.6.6.6.2.8-1 1-1.3 0-.3.5.1.6-.5.3 0-.1-.7 0-.9.2-.2.3-.5.3-.8l-.1-1.1c0-.3-.2-.6-.4-.8-1-1-3.2-1.4-4.5-1.3Z"/></mask><path d="M16.7 2.6a7.5 7.5 0 0 0-4.3 2l-.3.9.2 1.5c0 .3.1.6.4.9.2.2.6 1.9 1 2 .3 0 .6-1.2.8-1.4.3-.1.5-.9.6-1.2a.7.7 0 0 0 1-.2 1.5 1.5 0 0 0 1.4.5c.2 0 .4 0 .6-.2l1.1 1.3c.2 0 .3.5.6.6.6.2.8-1 1-1.3 0-.3.5.1.6-.5.3 0-.1-.7 0-.9.2-.2.3-.5.3-.8l-.1-1.1c0-.3-.2-.6-.4-.8-1-1-3.2-1.4-4.5-1.3Z" fill="#fff" stroke="url(#h)" mask="url(#i)"/><mask id="k" fill="#fff"><path d="M16.7 2.6a7.5 7.5 0 0 0-4.3 2l-.3.9s1-.3 1.5.3c.4.5.6 0 1-.2S15 4 15.3 4c.3 0 .9-.6 1.2-.7.3-.3 1.6 1 1.7.8.1.2.6-.8 1.4-.6.9.2 2.1 2.4 2 2.2v-1c0-.3-.2-.6-.4-.8-1-1-3.2-1.4-4.5-1.3Z"/></mask><path d="M16.7 2.6a7.5 7.5 0 0 0-4.3 2l-.3.9s1-.3 1.5.3c.4.5.6 0 1-.2S15 4 15.3 4c.3 0 .9-.6 1.2-.7.3-.3 1.6 1 1.7.8.1.2.6-.8 1.4-.6.9.2 2.1 2.4 2 2.2v-1c0-.3-.2-.6-.4-.8-1-1-3.2-1.4-4.5-1.3Z" fill="#DADADB" stroke="url(#j)" mask="url(#k)"/></g><defs><linearGradient id="b" x1="6.5" y1="12.2" x2="7.3" y2="7.5" gradientUnits="userSpaceOnUse"><stop stop-color="#9C0000"/><stop offset=".3" stop-color="red"/></linearGradient><linearGradient id="d" x1="23.4" y1="3.4" x2="24.1" y2="12.3" gradientUnits="userSpaceOnUse"><stop stop-color="#777"/><stop offset="1" stop-color="#232111"/><stop offset="1" stop-color="#565549"/></linearGradient><linearGradient id="e" x1="16.5" y1="4.8" x2="17.5" y2="16.3" gradientUnits="userSpaceOnUse"><stop offset=".4" stop-color="#E8D840"/><stop offset=".8" stop-color="#E9D60A"/><stop offset="1" stop-color="#E0D695"/></linearGradient><linearGradient id="f" x1="13.6" y1="12.5" x2="21.6" y2="11.8" gradientUnits="userSpaceOnUse"><stop stop-color="#F4DF01" stop-opacity="0"/><stop offset="1" stop-color="#FFDF37"/></linearGradient><linearGradient id="h" x1="16.6" y1="1.6" x2="17.3" y2="9.6" gradientUnits="userSpaceOnUse"><stop offset=".4" stop-color="#B1B1B5" stop-opacity="0"/><stop offset="1" stop-color="#DBDBD9"/></linearGradient><linearGradient id="j" x1="16.6" y1="1.6" x2="17.3" y2="9.6" gradientUnits="userSpaceOnUse"><stop offset=".4" stop-color="#B1B1B5" stop-opacity="0"/><stop offset="1" stop-color="#DBDBD9"/></linearGradient><radialGradient id="a" cx="0" cy="0" r="1" gradientUnits="userSpaceOnUse" gradientTransform="rotate(60 -1 6.4) scale(12.7918)"><stop stop-color="#FAFAE3"/><stop offset=".2" stop-color="#FFFFA2"/><stop offset=".7" stop-color="#FFEF06"/><stop offset="1" stop-color="#C7B300"/></radialGradient><clipPath id="c"><path fill="#fff" transform="rotate(-5 22.1 -112.2)" d="M0 0h16.3v17.2H0z"/></clipPath></defs></svg>