<svg width="16" height="16" fill="none" xmlns="http://www.w3.org/2000/svg"><circle cx="8" cy="8" r="7.9" fill="url(#a)"/><circle cx="8" cy="8" r="7.63" stroke="#000" stroke-opacity=".9" stroke-width=".75"/><rect x="5.5" y="4" width="2" height="2" rx=".5" fill="#000" fill-opacity=".9"/><rect x="9.5" y="4" width="2" height="2" rx=".5" fill="#000" fill-opacity=".9"/><path d="M8.27 10.3s-1.42 0-2.17-.3-1-.7-1.5-1.1l.3-1.02a1.68 1.68 0 0 1 2.3-1.06c.24.12.42.34.47.6l.59 2.88Z" fill="#CF0F00"/><path d="M13 7.5c-.1.75-.8 2.05-2.17 2.5-.75.25-1.33.25-2.33.25M4 7.5c.1.75.8 2.05 2.17 2.5.75.25 1.33.25 2.33.25" stroke="#000" stroke-opacity=".9" stroke-width="1.1"/><defs><radialGradient id="a" cx="0" cy="0" r="1" gradientUnits="userSpaceOnUse" gradientTransform="rotate(59.99 .72 5.4) scale(12.7918)"><stop stop-color="#FAFAE3"/><stop offset=".23" stop-color="#FFFFA2"/><stop offset=".66" stop-color="#FFEF06"/><stop offset="1" stop-color="#C7B300"/></radialGradient></defs></svg>