<svg width="16" height="16" fill="none" xmlns="http://www.w3.org/2000/svg"><g clip-path="url(#a)"><mask id="c" fill="#fff"><path d="M4.07 12.9c.94.53 1.05 1.3 2.5 1.97.86.4 3.52.2 4.43.2l1.1.02c.83 0 1.56-.53 1.83-1.31l.48-1.37a3 3 0 0 0 .16-.99v-.95c0-.57.2-.83-.6-2.81a4.27 4.27 0 0 1-.2-2.3c.14-.74.19-1.42.5-1.96.2-.35.36-.79.3-.9a1.8 1.8 0 0 0-.72-.68c-.84-.48-2.13-.2-2.61.55-.34.53-.52 1.27-.7 1.98-.22.85-.4 1.58-.81 1.92a.19.19 0 0 1-.21.01l-.78-.48a1.85 1.85 0 0 0-2.53.67l-2.65 4.57a1.35 1.35 0 0 0 .1 1.5c.1.15.24.27.4.36Z"/></mask><path d="M4.07 12.9c.94.53 1.05 1.3 2.5 1.97.86.4 3.52.2 4.43.2l1.1.02c.83 0 1.56-.53 1.83-1.31l.48-1.37a3 3 0 0 0 .16-.99v-.95c0-.57.2-.83-.6-2.81a4.27 4.27 0 0 1-.2-2.3c.14-.74.19-1.42.5-1.96.2-.35.36-.79.3-.9a1.8 1.8 0 0 0-.72-.68c-.84-.48-2.13-.2-2.61.55-.34.53-.52 1.27-.7 1.98-.22.85-.4 1.58-.81 1.92a.19.19 0 0 1-.21.01l-.78-.48a1.85 1.85 0 0 0-2.53.67l-2.65 4.57a1.35 1.35 0 0 0 .1 1.5c.1.15.24.27.4.36Z" fill="url(#b)" stroke="#000" stroke-opacity=".9" stroke-width="1.6" mask="url(#c)"/><path d="M8.98 7.75c-.23.63-.23 1.6 0 2.2a2.86 2.86 0 0 0 2.16 1.77c.24.03.1.25-.14.22-1.05-.15-2.47-.57-2.84-1.52-1.02-2.59.17-3.95.7-3.54.25.2.26.52.12.87Z" fill="#000" fill-opacity=".66"/><path d="M7.32 7.3c.86.5 2 .94 2.5.16a.9.9 0 0 0 .14-.7C9.82 6.1 9 5.3 7.64 4.52c-.49-.28-.87-.46-.87-.46h-.01l-.01-.01-.04-.03c-.44-.25-1.05-.05-1.39.46-.34.53-.27 1.2.17 1.49l.02.02s.85.76 1.81 1.32Z" fill="url(#d)"/><mask id="e" maskUnits="userSpaceOnUse" x="3.61" y="2.26" width="8.56" height="7.83" fill="#000"><path fill="#fff" d="M3.61 2.26h8.56v7.83H3.61z"/><path d="M7.55 4.68c-.48-.28-.86-.45-.86-.45a.28.28 0 0 1-.04-.03l-.04-.02c-.35-.2-.85-.03-1.13.4-.15.22-.21.48-.18.71.02.23.13.41.3.52l.04.03c0 .01.83.76 1.77 1.3.55.32 1.03.5 1.41.55.53.07.75-.15.86-.33a.7.7 0 0 0 .1-.56c-.12-.6-.94-1.37-2.23-2.12Zm.19-.32c1.18.68 3.02 2 2.24 3.2-.57.87-1.74.5-2.75-.09-1-.57-1.84-1.35-1.84-1.35-.52-.34-.62-1.12-.21-1.74.39-.6 1.1-.82 1.62-.52.02 0 .03.02.05.03 0 0 .38.17.89.47Z"/></mask><path d="M7.55 4.68c-.48-.28-.86-.45-.86-.45a.28.28 0 0 1-.04-.03l-.04-.02c-.35-.2-.85-.03-1.13.4-.15.22-.21.48-.18.71.02.23.13.41.3.52l.04.03c0 .01.83.76 1.77 1.3.55.32 1.03.5 1.41.55.53.07.75-.15.86-.33a.7.7 0 0 0 .1-.56c-.12-.6-.94-1.37-2.23-2.12Zm.19-.32c1.18.68 3.02 2 2.24 3.2-.57.87-1.74.5-2.75-.09-1-.57-1.84-1.35-1.84-1.35-.52-.34-.62-1.12-.21-1.74.39-.6 1.1-.82 1.62-.52.02 0 .03.02.05.03 0 0 .38.17.89.47Z" fill="#000" fill-opacity=".9"/><path d="M7.55 4.68c-.48-.28-.86-.45-.86-.45a.28.28 0 0 1-.04-.03l-.04-.02c-.35-.2-.85-.03-1.13.4-.15.22-.21.48-.18.71.02.23.13.41.3.52l.04.03c0 .01.83.76 1.77 1.3.55.32 1.03.5 1.41.55.53.07.75-.15.86-.33a.7.7 0 0 0 .1-.56c-.12-.6-.94-1.37-2.23-2.12Zm.19-.32c1.18.68 3.02 2 2.24 3.2-.57.87-1.74.5-2.75-.09-1-.57-1.84-1.35-1.84-1.35-.52-.34-.62-1.12-.21-1.74.39-.6 1.1-.82 1.62-.52.02 0 .03.02.05.03 0 0 .38.17.89.47Z" stroke="#000" stroke-opacity=".9" stroke-width=".2" mask="url(#e)"/><path d="M5.4 8.92c1.19.68 2.7 1.3 3.26.35.54-.95-.75-1.96-1.93-2.64-1-.58-2-.96-2.01-.96l-.03-.02c-.47-.27-1.1.04-1.36.5-.27.47-.24 1.23.22 1.5l.02.01s.84.68 1.84 1.26Z" fill="url(#f)"/><mask id="g" maskUnits="userSpaceOnUse" x="1.51" y="3.69" width="9.43" height="8.33" fill="#000"><path fill="#fff" d="M1.51 3.69h9.43v8.33H1.51z"/><path d="M6.63 6.8c-.98-.58-1.97-.95-1.98-.96a.32.32 0 0 1-.05-.02c-.37-.22-.9.04-1.1.42-.23.39-.21 1.04.14 1.24l.05.04s.82.67 1.81 1.24c.74.42 1.37.68 1.88.77.74.13.99-.14 1.11-.36.13-.21.24-.56-.24-1.14A6.1 6.1 0 0 0 6.63 6.8Zm.2-.33c1.28.74 2.6 1.82 1.99 2.9-.62 1.06-2.22.46-3.5-.29-1.03-.6-1.87-1.27-1.87-1.27-.56-.32-.6-1.2-.28-1.76.32-.55 1.06-.88 1.62-.56 0 0 1 .39 2.03.98Z"/></mask><path d="M6.63 6.8c-.98-.58-1.97-.95-1.98-.96a.32.32 0 0 1-.05-.02c-.37-.22-.9.04-1.1.42-.23.39-.21 1.04.14 1.24l.05.04s.82.67 1.81 1.24c.74.42 1.37.68 1.88.77.74.13.99-.14 1.11-.36.13-.21.24-.56-.24-1.14A6.1 6.1 0 0 0 6.63 6.8Zm.2-.33c1.28.74 2.6 1.82 1.99 2.9-.62 1.06-2.22.46-3.5-.29-1.03-.6-1.87-1.27-1.87-1.27-.56-.32-.6-1.2-.28-1.76.32-.55 1.06-.88 1.62-.56 0 0 1 .39 2.03.98Z" fill="#000" fill-opacity=".9"/><path d="M6.63 6.8c-.98-.58-1.97-.95-1.98-.96a.32.32 0 0 1-.05-.02c-.37-.22-.9.04-1.1.42-.23.39-.21 1.04.14 1.24l.05.04s.82.67 1.81 1.24c.74.42 1.37.68 1.88.77.74.13.99-.14 1.11-.36.13-.21.24-.56-.24-1.14A6.1 6.1 0 0 0 6.63 6.8Zm.2-.33c1.28.74 2.6 1.82 1.99 2.9-.62 1.06-2.22.46-3.5-.29-1.03-.6-1.87-1.27-1.87-1.27-.56-.32-.6-1.2-.28-1.76.32-.55 1.06-.88 1.62-.56 0 0 1 .39 2.03.98Z" stroke="#000" stroke-opacity=".9" stroke-width=".2" mask="url(#g)"/><path d="M2.95 12.44c.43.25 2.64 1.47 3.7 1.16a.66.66 0 0 0 .41-.3c.33-.58-.4-1.44-2-2.36C4.47 10.6 4 10.4 4 10.39h-.02a.99.99 0 0 0-.8-.08 1.2 1.2 0 0 0-.67.55c-.32.55-.17 1.23.33 1.52l.1.06Z" fill="url(#h)"/><mask id="i" maskUnits="userSpaceOnUse" x="1.13" y="8.46" width="8.06" height="6.96" fill="#000"><path fill="#fff" d="M1.13 8.46h8.06v6.96H1.13z"/><path d="M4.96 11.1a12.8 12.8 0 0 0-1.03-.53l-.03-.02a.82.82 0 0 0-.67-.06 1 1 0 0 0-.56.46c-.26.46-.14 1.03.27 1.27h.01l.1.06c1.86 1.07 3.08 1.28 3.56 1.14a.46.46 0 0 0 .3-.22c.25-.45-.5-1.25-1.95-2.1Zm.18-.32c1.1.63 2.59 1.7 2.07 2.6-.71 1.24-3.75-.43-4.35-.78l-.1-.06c-.59-.34-.76-1.12-.4-1.76.37-.64 1.14-.89 1.73-.56 0 0 .47.22 1.05.56Z"/></mask><path d="M4.96 11.1a12.8 12.8 0 0 0-1.03-.53l-.03-.02a.82.82 0 0 0-.67-.06 1 1 0 0 0-.56.46c-.26.46-.14 1.03.27 1.27h.01l.1.06c1.86 1.07 3.08 1.28 3.56 1.14a.46.46 0 0 0 .3-.22c.25-.45-.5-1.25-1.95-2.1Zm.18-.32c1.1.63 2.59 1.7 2.07 2.6-.71 1.24-3.75-.43-4.35-.78l-.1-.06c-.59-.34-.76-1.12-.4-1.76.37-.64 1.14-.89 1.73-.56 0 0 .47.22 1.05.56Z" fill="#000" fill-opacity=".9"/><path d="M4.96 11.1a12.8 12.8 0 0 0-1.03-.53l-.03-.02a.82.82 0 0 0-.67-.06 1 1 0 0 0-.56.46c-.26.46-.14 1.03.27 1.27h.01l.1.06c1.86 1.07 3.08 1.28 3.56 1.14a.46.46 0 0 0 .3-.22c.25-.45-.5-1.25-1.95-2.1Zm.18-.32c1.1.63 2.59 1.7 2.07 2.6-.71 1.24-3.75-.43-4.35-.78l-.1-.06c-.59-.34-.76-1.12-.4-1.76.37-.64 1.14-.89 1.73-.56 0 0 .47.22 1.05.56Z" stroke="#000" stroke-opacity=".9" stroke-width=".2" mask="url(#i)"/><path d="M3.77 10.51c.97.57 3.3 1.76 3.9.74.49-.86-1.07-1.93-2.04-2.5a16.23 16.23 0 0 0-1.69-.84c-.45-.26-1.1-.34-1.47.3-.34.59-.19 1.4.32 1.7h.01s.4.28.97.6Z" fill="url(#j)"/><mask id="k" maskUnits="userSpaceOnUse" x=".92" y="5.83" width="8.93" height="7.46" fill="#000"><path fill="#fff" d="M.92 5.83h8.93v7.46H.92z"/><path d="m5.72 8.6-.19.32a15.99 15.99 0 0 0-1.68-.84c-.4-.23-.92-.3-1.22.22-.29.5-.16 1.2.25 1.44l.03.02s.4.27.96.6c.59.33 1.45.78 2.22.99.74.2 1.22.13 1.4-.2.07-.1.24-.4-.32-1.01-.35-.38-.9-.8-1.64-1.22l.19-.32Zm0 0c1.25.72 2.65 1.79 2.1 2.74-.65 1.13-2.85.09-4.14-.66-.58-.34-.98-.61-.98-.61-.61-.36-.78-1.3-.4-1.96.4-.67 1.12-.71 1.73-.36 0 0 .8.34 1.69.85Z"/></mask><path d="m5.72 8.6-.19.32a15.99 15.99 0 0 0-1.68-.84c-.4-.23-.92-.3-1.22.22-.29.5-.16 1.2.25 1.44l.03.02s.4.27.96.6c.59.33 1.45.78 2.22.99.74.2 1.22.13 1.4-.2.07-.1.24-.4-.32-1.01-.35-.38-.9-.8-1.64-1.22l.19-.32Zm0 0c1.25.72 2.65 1.79 2.1 2.74-.65 1.13-2.85.09-4.14-.66-.58-.34-.98-.61-.98-.61-.61-.36-.78-1.3-.4-1.96.4-.67 1.12-.71 1.73-.36 0 0 .8.34 1.69.85Z" fill="#000" fill-opacity=".9"/><path d="m5.53 8.92.09.05-.05.09L5.48 9l.05-.09ZM3.9 8.1l-.04.1.04-.1ZM2.9 9.76l-.05.08.05-.08Zm3.18 1.59-.03.1.03-.1Zm1.08-1.21-.07.07.07-.07ZM5.53 8.92l-.05.09-.08-.05.05-.09.08.05ZM2.7 10.07l.05-.1v.01l-.05.09Zm1.33-2.32-.04.1v-.01l.04-.09Zm1.78.9-.2.32-.16-.1.18-.32.18.1ZM5.48 9c-.42-.25-.83-.45-1.13-.6l-.5-.22.07-.18c.02 0 .81.33 1.66.82l-.1.18Zm-1.63-.82c-.02 0-.04-.02-.05-.03L3.9 8l.03.02-.08.18Zm-.05-.03c-.19-.1-.4-.17-.59-.15a.61.61 0 0 0-.5.34l-.16-.1c.16-.29.4-.42.64-.44.25-.02.5.06.7.18l-.1.17Zm-1.08.19c-.13.22-.17.5-.13.75.04.25.17.45.34.55l-.1.18a.98.98 0 0 1-.44-.7c-.05-.29 0-.61.16-.88l.17.1Zm.21 1.3.04.03-.12.16-.02-.01.1-.18Zm.03.02h.01L3 9.7a10.19 10.19 0 0 0 .93.58l-.1.17a16.83 16.83 0 0 1-.95-.59h-.01c0-.01 0 0 0 0l.1-.18Zm.96.6c.58.34 1.44.78 2.2.98l-.06.2a10.3 10.3 0 0 1-2.24-1.01l.1-.17Zm2.2.98c.36.1.65.13.87.1.21-.03.35-.11.42-.24l.17.1c-.11.2-.3.3-.56.34-.26.04-.58 0-.96-.1l.06-.2Zm1.3-.14c.02-.05.06-.13.05-.26-.02-.14-.1-.35-.37-.64l.14-.14c.3.31.4.56.43.76.02.2-.05.32-.09.38l-.17-.1Zm-.32-.9A6.95 6.95 0 0 0 5.48 9l.1-.17c.74.42 1.3.84 1.66 1.23l-.14.14ZM5.45 8.87l.18-.32.18.1-.2.32-.16-.1Zm.32-.36c.63.36 1.3.82 1.75 1.3.45.49.7 1.05.39 1.58l-.17-.1c.24-.41.06-.87-.37-1.34a7.47 7.47 0 0 0-1.7-1.27l.1-.17Zm2.14 2.88c-.18.32-.47.47-.81.53-.34.05-.73 0-1.13-.11-.8-.22-1.7-.67-2.34-1.05l.1-.17c.64.37 1.5.82 2.29 1.03.39.1.75.14 1.05.1.3-.05.52-.18.67-.43l.17.1Zm-4.28-.63a17.2 17.2 0 0 1-.92-.56l-.05-.04h-.01v-.01h-.01l.06-.08.05-.09a.61.61 0 0 0 .02.02l.05.03a12.48 12.48 0 0 0 .9.56l-.1.17Zm-.98-.6c-.34-.2-.55-.55-.62-.94-.07-.38-.01-.8.2-1.16l.16.1c-.18.31-.23.69-.16 1.03.06.34.24.63.52.79l-.1.17Zm-.43-2.1c.2-.36.51-.56.85-.61.33-.06.7.03 1.01.22l-.1.17c-.29-.17-.6-.24-.88-.2a.98.98 0 0 0-.7.52l-.18-.1Zm1.81-.3.04-.1h.01a5.85 5.85 0 0 1 .5.23c.32.15.75.36 1.19.62l-.1.17a16.4 16.4 0 0 0-1.68-.84l.04-.09Z" fill="#000" fill-opacity=".9" mask="url(#k)"/></g><defs><radialGradient id="b" cx="0" cy="0" r="1" gradientUnits="userSpaceOnUse" gradientTransform="matrix(-8.96253 6.93678 -5.61566 -7.2556 15.5 4.94)"><stop stop-color="#FAFAE3"/><stop offset=".23" stop-color="#FFFFA2"/><stop offset=".66" stop-color="#FFEF06"/><stop offset="1" stop-color="#C7B300"/></radialGradient><radialGradient id="d" cx="0" cy="0" r="1" gradientUnits="userSpaceOnUse" gradientTransform="rotate(170.38 4.23 3.2) scale(2.83386 3.21421)"><stop stop-color="#FAFAE3"/><stop offset=".23" stop-color="#FFFFA2"/><stop offset=".66" stop-color="#FFEF06"/><stop offset="1" stop-color="#C7B300"/></radialGradient><radialGradient id="f" cx="0" cy="0" r="1" gradientUnits="userSpaceOnUse" gradientTransform="rotate(173.46 3.53 3.94) scale(3.11138 3.43682)"><stop stop-color="#FAFAE3"/><stop offset=".23" stop-color="#FFFFA2"/><stop offset=".66" stop-color="#FFEF06"/><stop offset="1" stop-color="#C7B300"/></radialGradient><radialGradient id="h" cx="0" cy="0" r="1" gradientUnits="userSpaceOnUse" gradientTransform="rotate(171.68 2.59 6.14) scale(2.65584 2.98322)"><stop stop-color="#FAFAE3"/><stop offset=".23" stop-color="#FFFFA2"/><stop offset=".66" stop-color="#FFEF06"/><stop offset="1" stop-color="#C7B300"/></radialGradient><radialGradient id="j" cx="0" cy="0" r="1" gradientUnits="userSpaceOnUse" gradientTransform="matrix(-2.96884 .2683 -.29169 -3.22758 6.45 9.59)"><stop stop-color="#FAFAE3"/><stop offset=".23" stop-color="#FFFFA2"/><stop offset=".66" stop-color="#FFEF06"/><stop offset="1" stop-color="#C7B300"/></radialGradient><clipPath id="a"><path fill="#fff" d="M0 0h16v16H0z"/></clipPath></defs></svg>