<svg width="16" height="16" fill="none" xmlns="http://www.w3.org/2000/svg"><circle cx="8" cy="8" r="7.9" fill="url(#a)"/><circle cx="8" cy="8" r="7.63" stroke="#000" stroke-opacity=".9" stroke-width=".75"/><g opacity=".66"><circle cx="12.5" cy="7" r="2.5" fill="url(#b)"/><circle cx="12.5" cy="7" r="2.5" fill="url(#c)"/></g><g opacity=".66"><circle cx="3.5" cy="7" r="2.5" fill="url(#d)"/><circle cx="3.5" cy="7" r="2.5" fill="url(#e)"/></g><rect x="4.75" y="4" width="2" height="2" rx=".5" fill="#000" fill-opacity=".9"/><rect x="9.75" y="4" width="2" height="2" rx=".5" fill="#000" fill-opacity=".9"/><path fill-rule="evenodd" clip-rule="evenodd" d="M8.25 12v-.12c.48 0 .87 0 1.49-.3.3-.14.6-.5.81-1.05a5.11 5.11 0 0 0 .33-2.03H5.63v.35c.01.51.12 1.14.33 1.68.21.55.5.91.8 1.06a3 3 0 0 0 1.5.29V12Z" fill="url(#f)"/><path fill-rule="evenodd" clip-rule="evenodd" d="M4.38 7.5H12.13v1l-.01.38a6.36 6.36 0 0 1-.41 2.1c-.27.68-.71 1.4-1.45 1.74-.87.4-1.48.4-2.01.4-.53 0-1.14 0-2.01-.4a3.06 3.06 0 0 1-1.45-1.74 6.36 6.36 0 0 1-.42-2.73h.01V7.5Zm1.25 1v.35c.01.51.11 1.14.32 1.68.22.55.5.91.81 1.06.63.29 1.02.29 1.49.29s.86 0 1.49-.3c.3-.14.59-.5.8-1.05a5.1 5.1 0 0 0 .33-2.03H5.63Z" fill="#000" fill-opacity=".9"/><defs><radialGradient id="a" cx="0" cy="0" r="1" gradientUnits="userSpaceOnUse" gradientTransform="rotate(59.99 .72 5.4) scale(12.7918)"><stop stop-color="#FAFAE3"/><stop offset=".23" stop-color="#FFFFA2"/><stop offset=".66" stop-color="#FFEF06"/><stop offset="1" stop-color="#C7B300"/></radialGradient><radialGradient id="b" cx="0" cy="0" r="1" gradientUnits="userSpaceOnUse" gradientTransform="matrix(0 2.5 -2.5 0 12.5 7)"><stop stop-color="#FF2C55" stop-opacity=".7"/><stop offset=".71" stop-color="#F59FB0" stop-opacity=".5"/><stop offset="1" stop-color="#E9B1BC" stop-opacity="0"/></radialGradient><radialGradient id="c" cx="0" cy="0" r="1" gradientUnits="userSpaceOnUse" gradientTransform="matrix(0 2.5 -2.5 0 12.5 7)"><stop stop-color="#FF2C55"/><stop offset=".71" stop-color="#F5B39F" stop-opacity=".33"/><stop offset="1" stop-color="#E9C5B1" stop-opacity="0"/></radialGradient><radialGradient id="d" cx="0" cy="0" r="1" gradientUnits="userSpaceOnUse" gradientTransform="matrix(0 2.5 -2.5 0 3.5 7)"><stop stop-color="#FF2C55" stop-opacity=".7"/><stop offset=".71" stop-color="#F59FB0" stop-opacity=".5"/><stop offset="1" stop-color="#E9B1BC" stop-opacity="0"/></radialGradient><radialGradient id="e" cx="0" cy="0" r="1" gradientUnits="userSpaceOnUse" gradientTransform="matrix(0 2.5 -2.5 0 3.5 7)"><stop stop-color="#FF2C55"/><stop offset=".71" stop-color="#F5B39F" stop-opacity=".33"/><stop offset="1" stop-color="#E9C5B1" stop-opacity="0"/></radialGradient><linearGradient id="f" x1="8.25" y1="8" x2="8.25" y2="12" gradientUnits="userSpaceOnUse"><stop stop-color="#A95858" stop-opacity=".6"/><stop offset=".18" stop-color="#A95050" stop-opacity=".5"/><stop offset="1" stop-color="#AA2A2A" stop-opacity="0"/></linearGradient></defs></svg>