<svg width="20" height="16" fill="none" xmlns="http://www.w3.org/2000/svg"><mask id="a" maskUnits="userSpaceOnUse" x="14.5" y=".49" width="6" height="9" fill="#000"><path fill="#fff" d="M14.5.49h6v9h-6z"/><path d="M17.95 6.34h-.97v-.3c0-.36.05-.66.16-.89.1-.23.3-.5.62-.8a5 5 0 0 0 .56-.57c.1-.14.14-.3.14-.47a.85.85 0 0 0-.25-.62.88.88 0 0 0-.67-.26c-.27 0-.5.1-.68.27-.19.18-.31.45-.38.82l-.98-.14a2 2 0 0 1 .58-1.34 1.9 1.9 0 0 1 1.41-.55c.62 0 1.1.19 1.47.56.36.37.54.8.54 1.3 0 .27-.07.52-.2.77-.13.24-.42.57-.85.99-.23.22-.37.4-.43.52-.05.13-.07.37-.07.71ZM16.98 8V6.77h1.07V8h-1.07Z"/></mask><path d="M17.95 6.34h-.97v-.3c0-.36.05-.66.16-.89.1-.23.3-.5.62-.8a5 5 0 0 0 .56-.57c.1-.14.14-.3.14-.47a.85.85 0 0 0-.25-.62.88.88 0 0 0-.67-.26c-.27 0-.5.1-.68.27-.19.18-.31.45-.38.82l-.98-.14a2 2 0 0 1 .58-1.34 1.9 1.9 0 0 1 1.41-.55c.62 0 1.1.19 1.47.56.36.37.54.8.54 1.3 0 .27-.07.52-.2.77-.13.24-.42.57-.85.99-.23.22-.37.4-.43.52-.05.13-.07.37-.07.71ZM16.98 8V6.77h1.07V8h-1.07Z" fill="#000"/><path d="M17.95 6.34h-.97v-.3c0-.36.05-.66.16-.89.1-.23.3-.5.62-.8a5 5 0 0 0 .56-.57c.1-.14.14-.3.14-.47a.85.85 0 0 0-.25-.62.88.88 0 0 0-.67-.26c-.27 0-.5.1-.68.27-.19.18-.31.45-.38.82l-.98-.14a2 2 0 0 1 .58-1.34 1.9 1.9 0 0 1 1.41-.55c.62 0 1.1.19 1.47.56.36.37.54.8.54 1.3 0 .27-.07.52-.2.77-.13.24-.42.57-.85.99-.23.22-.37.4-.43.52-.05.13-.07.37-.07.71ZM16.98 8V6.77h1.07V8h-1.07Z" stroke="#fff" stroke-opacity=".66" mask="url(#a)"/><circle cx="8" cy="8" r="7.9" fill="url(#b)"/><circle cx="8" cy="8" r="7.63" stroke="#000" stroke-opacity=".9" stroke-width=".75"/><rect x="5.75" y="5.5" width="2" height="2" rx=".5" fill="#000" fill-opacity=".9"/><rect x="8.75" y="5.5" width="2" height="2" rx=".5" fill="#000" fill-opacity=".9"/><path d="m3.5 11.5.93-1.49a2 2 0 0 1 3.31-.11l.52.7a2 2 0 0 0 3.31-.11L12.5 9M10.8 3.6l.57.4a5 5 0 0 1 1.42 1.55l.22.36M5.7 3.6l-.57.4a5 5 0 0 0-1.42 1.55l-.22.36" stroke="#000" stroke-opacity=".9"/><defs><radialGradient id="b" cx="0" cy="0" r="1" gradientUnits="userSpaceOnUse" gradientTransform="rotate(59.99 .72 5.4) scale(12.7918)"><stop stop-color="#FAFAE3"/><stop offset=".23" stop-color="#FFFFA2"/><stop offset=".66" stop-color="#FFEF06"/><stop offset="1" stop-color="#C7B300"/></radialGradient></defs></svg>