<svg width="22" height="19" fill="none" xmlns="http://www.w3.org/2000/svg"><path fill-rule="evenodd" clip-rule="evenodd" d="M4.44 3.88c-.05-.12-.1-.25-.17-.37-.35-.72-.74-1.54-.27-2l.89-.9.19-.18c.8-.8-1.83.33-2.5 1-.67.66-.67 1.99-.67 2V5.9A8.02 8.02 0 0 0 .1 11c0 4.36 3.43 7.9 7.65 7.9 2.14 0 4.07-.9 5.45-2.36h.08c.61-.02 1.2-.04 1.72-.04 3.5 0 6.5-2.3 6.5-7 0-2.17-1.07-4.65-2.55-6.45L20 2h1V1h-5v5h1V5l1.04-1.04A6.72 6.72 0 0 1 19.5 8.5c0 2.77-.72 4.5-3.24 4.5h-1.1a8.16 8.16 0 0 0-1.84-7.42V3.43c0-.01 0-1.34-.67-2-.67-.67-3.3-1.8-2.5-1l.2.19.88.88c.47.47.08 1.29-.27 2l-.13.27a7.42 7.42 0 0 0-6.39.1Z" fill="url(#a)"/><path fill-rule="evenodd" clip-rule="evenodd" d="M4.44 3.88c-.05-.12-.1-.25-.17-.37-.35-.72-.74-1.54-.27-2l.89-.9.19-.18c.8-.8-1.83.33-2.5 1-.67.66-.67 1.99-.67 2V5.9A8.02 8.02 0 0 0 .1 11c0 4.36 3.43 7.9 7.65 7.9 2.14 0 4.07-.9 5.45-2.36h.08c.61-.02 1.2-.04 1.72-.04 3.5 0 6.5-2.3 6.5-7 0-2.17-1.07-4.65-2.55-6.45L20 2h1V1h-5v5h1V5l1.04-1.04A6.72 6.72 0 0 1 19.5 8.5c0 2.77-.72 4.5-3.24 4.5h-1.1a8.16 8.16 0 0 0-1.84-7.42V3.43c0-.01 0-1.34-.67-2-.67-.67-3.3-1.8-2.5-1l.2.19.88.88c.47.47.08 1.29-.27 2l-.13.27a7.42 7.42 0 0 0-6.39.1Z" fill="url(#b)" fill-opacity=".66"/><mask id="d" fill="#fff"><path fill-rule="evenodd" clip-rule="evenodd" d="M4.44 3.88c-.05-.12-.1-.25-.17-.37-.35-.72-.74-1.54-.27-2l.89-.9.19-.18c.8-.8-1.83.33-2.5 1-.67.66-.67 1.99-.67 2V5.9A8.02 8.02 0 0 0 .1 11c0 4.36 3.43 7.9 7.65 7.9 2.14 0 4.07-.9 5.45-2.36h.08c.61-.02 1.2-.04 1.72-.04 3.5 0 6.5-2.3 6.5-7 0-2.17-1.07-4.65-2.55-6.45L20 2h1V1h-5v5h1V5l1.04-1.04A6.72 6.72 0 0 1 19.5 8.5c0 2.77-.72 4.5-3.24 4.5h-1.1a8.16 8.16 0 0 0-1.84-7.42V3.43c0-.01 0-1.34-.67-2-.67-.67-3.3-1.8-2.5-1l.2.19.88.88c.47.47.08 1.29-.27 2l-.13.27a7.42 7.42 0 0 0-6.39.1Z"/></mask><path d="m4.27 3.5.9-.43-.9.44Zm.17.38-.9.4.42.95.93-.46-.45-.9Zm-.17-.37-.9.43.9-.43ZM4 1.5 3.3.78l.7.71Zm.89-.9.7.72-.7-.71Zm0 0 .7.72-.7-.71Zm0 0-.71-.7.7.7Zm0 0-.7-.7h-.01l.7.7Zm.19-.18.7.7-.7-.7Zm-2.5 1-.7-.71.7.7Zm-.67 2h-1 1Zm0 0h1-1Zm0 2.47.77.63.23-.27V5.9h-1Zm11.3 10.64-.04-1-.4.01-.29.3.72.7Zm.07 0 .03 1h.03l-.06-1Zm0 0-.03-1h-.03l.06 1Zm5.67-13.49-.7-.7-.65.64.58.7.77-.64ZM20 2V1h-.41l-.3.3.71.7Zm1 0v1h1V2h-1Zm0-1h1V0h-1v1Zm-5 0V0h-1v1h1Zm0 5h-1v1h1V6Zm1 0v1h1V6h-1Zm0-1-.7-.7-.3.29V5h1Zm1.04-1.04.77-.65-.7-.83-.77.77.7.7Zm-2.89 9.03-.97-.24-.3 1.22 1.26.02.01-1Zm-1.83-7.4h-1v.38l.26.29.74-.68Zm0-2.16h1-1Zm0 0h-1 1Zm-.67-2-.7.7.7-.7Zm-2.5-1-.7.7.7-.7Zm.2.19-.71.7.7-.7Zm0 0 .7-.7V-.1l-.7.7Zm0 0-.71.7v.01l.7-.71Zm0 0 .7-.71-.7.7Zm.88.88-.7.7.7-.7Zm-.27 2-.9-.43.9.44Zm-.13.27-.41.9.9.42.42-.9-.9-.42Zm-7.46.17.16.35 1.83-.83-.19-.39-1.8.87Zm0 0 1.8-.87-1.8.88ZM3.3.8c-.6.6-.55 1.36-.44 1.85.12.48.36.97.52 1.3l1.8-.87a4.9 4.9 0 0 1-.37-.89l-.02-.11c0 .03-.03.1-.07.14L3.29.79Zm.9-.88-.9.88 1.42 1.42.88-.88L4.19-.1Zm-.01 0 1.41 1.42L4.18-.1Zm0 0 1.41 1.41-1.41-1.4Zm0 0 1.41 1.42L4.18-.1Zm.2-.2-.2.2L5.6 1.33l.2-.2L4.37-.28Zm-1.1 2.42a8.36 8.36 0 0 1 1.82-.96c.12-.03.12-.02.05-.02-.02 0-.2.01-.41-.1a.95.95 0 0 1-.51-.9c.02-.26.13-.41.14-.42.02-.03.03-.04 0-.01L5.8 1.13c.07-.07.15-.16.22-.26.06-.08.2-.3.22-.59a1.05 1.05 0 0 0-.57-1 1.17 1.17 0 0 0-.57-.12c-.21 0-.42.06-.57.1A10.35 10.35 0 0 0 2.87 0c-.34.2-.73.45-1 .72L3.3 2.13Zm-.37 1.3c0 .03 0-.23.07-.56.07-.35.18-.61.3-.74L1.89.72A3.45 3.45 0 0 0 1 2.48c-.1.5-.1.9-.1.94h2Zm0 0h-2 2Zm0 2.47V3.43h-2V5.9h2ZM1.1 11c0-1.7.6-3.27 1.58-4.47L1.14 5.26A9.02 9.02 0 0 0-.9 11h2Zm6.65 6.9A6.78 6.78 0 0 1 1.1 11h-2c0 4.89 3.84 8.9 8.65 8.9v-2Zm4.73-2.05a6.51 6.51 0 0 1-4.73 2.05v2a8.51 8.51 0 0 0 6.18-2.67l-1.45-1.38Zm.77-.31h-.08l.07 2h.07l-.06-2Zm-.03 0 .12 2-.12-2ZM15 15.5c-.55 0-1.15.02-1.75.04l.06 2c.62-.02 1.18-.04 1.69-.04v-2Zm5.5-6c0 2.13-.67 3.6-1.64 4.55A5.42 5.42 0 0 1 15 15.5v2c1.97 0 3.86-.65 5.26-2.02 1.41-1.39 2.24-3.41 2.24-5.98h-2ZM18.18 3.7c1.37 1.66 2.32 3.93 2.32 5.81h2c0-2.45-1.18-5.16-2.78-7.09L18.18 3.7Zm1.11-2.4-1.05 1.06 1.42 1.41 1.05-1.05-1.42-1.42ZM21 1h-1v2h1V1Zm-1 0v1h2V1h-2Zm-3 1h4V0h-4v2Zm-1 0h1V0h-1v2Zm1 0V1h-2v1h2Zm0 4V2h-2v4h2Zm0-1h-1v2h1V5Zm-1 0v1h2V5h-2Zm1.34-1.75-1.05 1.04 1.42 1.42 1.04-1.05-1.41-1.41ZM20.5 8.5c0-2.05-.5-3.8-1.7-5.19l-1.52 1.3c.8.94 1.22 2.18 1.22 3.9h2ZM16.26 14c1.53 0 2.7-.55 3.4-1.67.66-1.03.84-2.4.84-3.83h-2c0 1.34-.18 2.23-.52 2.75-.27.43-.72.75-1.72.75v2Zm-1.12 0h1.12v-2h-1.09l-.03 2Zm-.74-3c0 .6-.07 1.2-.22 1.75l1.94.49c.18-.72.28-1.47.28-2.24h-2Zm-1.82-4.74A7.01 7.01 0 0 1 14.4 11h2c0-2.35-.89-4.5-2.34-6.1l-1.48 1.36Zm-.26-2.83v2.15h2V3.43h-2Zm0 0h2-2Zm-.38-1.3c.12.13.24.39.31.74.07.33.07.59.07.56h2c0-.04 0-.45-.1-.95a3.45 3.45 0 0 0-.87-1.76l-1.4 1.41ZM10.85-.28l.01.01s.12.16.14.42a.95.95 0 0 1-.51.9c-.21.11-.4.1-.41.1-.07 0-.07 0 .04.02l.35.13c.28.12.6.28.9.44.31.18.5.32.57.4L13.35.71a4.9 4.9 0 0 0-1-.71 10.35 10.35 0 0 0-1.64-.75c-.15-.04-.36-.1-.57-.1-.09 0-.33-.01-.58.12a1.05 1.05 0 0 0-.56 1c.02.3.16.51.22.59.07.1.15.2.22.26l1.41-1.41Zm.2.19-.2-.2-1.4 1.42.19.2 1.4-1.42Zm0 0L9.64 1.33l1.4-1.42Zm0 0L9.64 1.33l1.4-1.42Zm0 0L9.64 1.33l1.4-1.42Zm.89.88-.9-.88-1.4 1.42.88.88L11.94.79Zm-.08 3.15c.16-.33.4-.82.51-1.3.12-.49.16-1.25-.43-1.85l-1.42 1.42a.28.28 0 0 1-.07-.14l-.02.11c-.06.23-.19.5-.37.9l1.8.86Zm-.12.25.12-.25-1.8-.87-.13.27 1.8.85ZM7.75 4.1c.95 0 1.85.2 2.67.58l.83-1.82a8.42 8.42 0 0 0-3.5-.76v2Zm-2.86.67a6.42 6.42 0 0 1 2.86-.67v-2c-1.34 0-2.61.32-3.75.88l.89 1.8Z" fill="url(#c)" fill-opacity=".9" mask="url(#d)"/><path d="M6.17 4.5A6.6 6.6 0 0 0 1.5 8.33l.98.17A5.7 5.7 0 0 1 6.5 5.3l-.33-.8Z" fill="#F2F2F2" fill-opacity=".5"/><circle cx="8.5" cy="12" r="4" fill="url(#e)" fill-opacity=".75"/><rect x="5.5" y="8" width="2" height="2" rx=".5" fill="#CF0F00"/><path d="M5.5 8.5c0-.27.22-.5.5-.5h1c.28 0 .5.23.5.5V9h-2v-.5Z" fill="#830C00"/><rect x="9.5" y="8" width="2" height="2" rx=".5" fill="#CF0F00"/><path d="M9.5 8.5c0-.27.22-.5.5-.5h1c.28 0 .5.23.5.5V9h-2v-.5Z" fill="#830C00"/><path d="M4.75 12h7s-1 3-3.5 3-3.5-3-3.5-3Z" fill="#fff" fill-opacity=".75"/><path fill-rule="evenodd" clip-rule="evenodd" d="M4.12 12.44H4l-.38.02v-.14a22.99 22.99 0 0 1 .02-1.03v-.13c.01-.08.03-.25.16-.39a.59.59 0 0 1 .48-.17c.15.01.32.05.52.12l-.24.71h.02l.98.2c1.15.25 2.36.25 2.68.25a13.77 13.77 0 0 0 3.65-.44l.04-.01.09-.26-.15-.45c.2-.07.36-.1.5-.12.15 0 .35.02.5.17.12.14.14.31.15.39v.13l.02.1a5.83 5.83 0 0 1 0 .94v.12h-.38l-.29-.02v.01l-.05.06-.29-.25.29.25-.01.01-.03.04a43.91 43.91 0 0 1-1.58 1.72l-.1.1c-.59.59-1.25 1.26-2.36 1.26-1.12 0-1.78-.67-2.37-1.26l-.1-.1-.99-1.03a8.58 8.58 0 0 1-.67-.8Zm.44-1.01-.03-.01.03.01Zm.86.94-.48-.1.4.46c.3.32.66.7.97 1l.06.06c.63.63 1.08 1.09 1.88 1.09.8 0 1.24-.46 1.87-1.09l.06-.05a29.98 29.98 0 0 0 1.35-1.47l-.46.1c-1.23.26-2.5.26-2.82.26-.33 0-1.6 0-2.83-.26Z" fill="#680B1D"/><path d="M7.25 7.82s-1.03.57-1.5-.52c-.47-1.08-.78-1-.78-1v1.37c0 .1 0 .2.04.29.1.36.53 1.27 1.96.86 1-.3.28-1 .28-1ZM9.75 7.82s1.03.57 1.5-.52c.47-1.08.78-1 .78-1v1.37c0 .1 0 .2-.04.29-.1.36-.53 1.27-1.96.86-1-.3-.28-1-.28-1Z" fill="#000" fill-opacity=".9"/><defs><radialGradient id="a" cx="0" cy="0" r="1" gradientUnits="userSpaceOnUse" gradientTransform="rotate(56.61 1.07 7.55) scale(15.7424 16.7041)"><stop stop-color="#FCCADD"/><stop offset=".23" stop-color="#FF90B2"/><stop offset=".66" stop-color="#EF3D60"/><stop offset="1" stop-color="#AE0B2A"/></radialGradient><radialGradient id="b" cx="0" cy="0" r="1" gradientUnits="userSpaceOnUse" gradientTransform="matrix(5.5 5 -5.30543 5.83597 1.5 5)"><stop offset=".16" stop-color="#FFF7FA"/><stop offset="1" stop-color="#FF90B2" stop-opacity="0"/></radialGradient><radialGradient id="e" cx="0" cy="0" r="1" gradientUnits="userSpaceOnUse" gradientTransform="matrix(0 4 -4 0 8.5 12)"><stop stop-color="#DA1034"/><stop offset="1" stop-color="#DA1034" stop-opacity="0"/></radialGradient><linearGradient id="c" x1="10.8" y1=".15" x2="10.8" y2="18.9" gradientUnits="userSpaceOnUse"><stop stop-opacity=".2"/><stop offset="1" stop-opacity=".8"/></linearGradient></defs></svg>