<svg xmlns="http://www.w3.org/2000/svg" width="27" height="22"><path fill="url(#a)" d="M1.83 9.62c.09-.2.9-.32 1.38-.26.47.07.94.33 1.29.66a2.22 2.22 0 0 1 .65 1.49l14.37 6.19c.12-.1.26-.19.4-.27.42-.23.86-.31 1.33-.26.48.05.9.2 1.25.53.36.32.72.86.72 1.07-.06.18-.2.16-.63.08l-.91-.14-.85-.15c-.16.02-.26.03-.44.18a.75.75 0 0 0-.24.32c-.04.14-.07.19-.07.34 0 .14.03.21.07.35.08.1.2.23.68.6l.51.4.43.3c.26.17.33.29.26.4-.09.2-.9.32-1.38.25a2.45 2.45 0 0 1-1.29-.66 2.22 2.22 0 0 1-.65-1.5L4.36 13.35c-.13.1-.27.2-.42.28-.41.24-.86.32-1.33.27-.48-.06-.9-.21-1.25-.53-.35-.32-.72-.87-.72-1.07.06-.18.2-.16.63-.09l.91.15.85.14c.16-.02.27-.03.44-.17.13-.1.17-.18.24-.33.04-.13.07-.19.07-.33s-.03-.22-.07-.35c-.08-.11-.2-.24-.68-.6l-.51-.4-.43-.31c-.25-.17-.33-.28-.26-.4Z" style="fill:url(#a)"/><path d="M2.34 9.27c.29-.05.63-.07.9-.03h.03a2.7 2.7 0 0 1 1.4.7l.01.03c.38.36.57.83.67 1.31v.04l.02.1 14.12 5.98.31-.2.03-.01c.45-.25.94-.33 1.45-.28h.05c.5.07.94.24 1.33.58l.02.01a3.43 3.43 0 0 1 .7.91c.03.09.07.2.07.3v.07a.43.43 0 0 1-.14.21.43.43 0 0 1-.24.09h-.23a7.55 7.55 0 0 1-.29-.05l-.9-.15h-.01l-.81-.14-.14.03a.47.47 0 0 0-.14.08l-.01.01a.44.44 0 0 0-.1.1.98.98 0 0 0-.07.13c-.04.13-.05.15-.05.24s.01.14.05.24c.05.07.16.18.52.45l.08.07.51.39.42.3c.13.08.25.17.32.27a.37.37 0 0 1 .02.41.41.41 0 0 1-.14.15.85.85 0 0 1-.17.08 3.28 3.28 0 0 1-1.29.14h-.02a2.69 2.69 0 0 1-1.38-.68l-.04-.03a2.37 2.37 0 0 1-.67-1.3l-.01-.04-.03-.15-14.1-5.98-.3.2-.03.02c-.45.24-.93.33-1.43.29h-.05a2.4 2.4 0 0 1-1.36-.57l-.02-.01a3.4 3.4 0 0 1-.7-.93.75.75 0 0 1-.1-.3v-.03l.02-.04a.43.43 0 0 1 .14-.2.43.43 0 0 1 .23-.1l.24.01.28.05.91.14.82.14c.06 0 .1-.01.13-.03a.5.5 0 0 0 .15-.09l.02-.01a.4.4 0 0 0 .08-.08.98.98 0 0 0 .07-.13c.04-.13.05-.15.06-.25a.68.68 0 0 0-.05-.24c-.06-.07-.18-.2-.6-.51h-.01l-.51-.4-.42-.29a1.05 1.05 0 0 1-.31-.27.37.37 0 0 1-.02-.41c.04-.07.1-.12.14-.15a.85.85 0 0 1 .17-.08c.12-.04.26-.08.4-.1Zm-1.7 3.08c0 .2.37.74.72 1.05.36.32.77.47 1.25.52.46.05.89-.02 1.3-.23l.03-.03c.15-.08.3-.17.42-.27l14.35 6.08c0 .09.02.18.04.27.09.46.27.88.61 1.2.35.33.82.6 1.3.66.47.06 1.28-.06 1.37-.25.07-.1 0-.22-.26-.39l-.43-.3-.51-.39c-.48-.36-.6-.49-.68-.59-.04-.13-.07-.21-.07-.35 0-.14.03-.2.07-.33.07-.13.1-.2.22-.3l.02-.02c.18-.14.28-.15.44-.17l.85.15.9.14c.45.07.58.1.64-.09 0-.2-.35-.72-.7-1.04l-.02-.01c-.34-.3-.74-.46-1.2-.51h-.05a2.2 2.2 0 0 0-1.33.25l-.03.02c-.13.07-.25.15-.37.24L5.15 11.57l-.03-.21v-.03a2.18 2.18 0 0 0-.6-1.2l-.02-.01c-.34-.32-.8-.58-1.27-.65h-.02c-.47-.07-1.3.05-1.38.24-.07.11 0 .23.26.4l.43.3.51.38c.48.36.6.5.68.6.04.13.07.2.07.34 0 .15-.03.2-.07.33a.74.74 0 0 1-.24.32l-.01.01c-.17.13-.28.14-.43.16l-.85-.14-.9-.15c-.45-.07-.58-.09-.64.1Z"/><path d="M24.67 9.38c-.3-.05-.64-.06-.91-.03h-.03a2.7 2.7 0 0 0-1.4.72v.01a2.4 2.4 0 0 0-.68 1.32v.04l-.02.1-14.12 5.97-.31-.2h-.03a2.43 2.43 0 0 0-1.45-.29h-.05c-.5.06-.94.23-1.33.58l-.02.01a3.44 3.44 0 0 0-.69.9.75.75 0 0 0-.08.31v.07a.457.457 0 0 0 .38.3l.23-.01.29-.05.9-.14h.01l.81-.14.14.03c.03.01.08.03.14.08l.01.01.1.1.07.13c.04.12.05.14.06.24 0 .09-.02.13-.05.24-.06.07-.17.18-.52.45l-.1.06-.5.4-.42.29a.98.98 0 0 0-.32.28.37.37 0 0 0-.02.41c.04.07.1.12.14.15l.17.08a3.28 3.28 0 0 0 1.29.14h.02a2.69 2.69 0 0 0 1.39-.68l.03-.04c.38-.35.58-.81.68-1.29v-.04l.03-.16 14.1-5.97.3.2.03.01c.45.25.93.34 1.43.3l.05-.01c.5-.05.96-.22 1.36-.56l.02-.02a3.4 3.4 0 0 0 .7-.92c.05-.09.1-.2.1-.3v-.04l-.02-.03a.43.43 0 0 0-.13-.2.43.43 0 0 0-.24-.1l-.24.01-.28.04-.9.15h-.01l-.82.14a.73.73 0 0 1-.13-.03.5.5 0 0 1-.15-.1h-.02a.4.4 0 0 1-.08-.09 1 1 0 0 1-.07-.13c-.04-.13-.05-.15-.06-.24 0-.09.02-.13.05-.24.06-.07.18-.2.61-.52l.51-.38.42-.3c.13-.09.25-.18.32-.28a.37.37 0 0 0 .02-.41.41.41 0 0 0-.14-.15.85.85 0 0 0-.17-.08 2.17 2.17 0 0 0-.4-.1Zm1.69 3.09c0 .2-.36.74-.72 1.05-.36.32-.77.47-1.25.52a2.2 2.2 0 0 1-1.3-.24l-.03-.02a3.07 3.07 0 0 1-.42-.27L8.29 19.59c0 .09-.02.18-.04.26-.08.47-.27.9-.61 1.22-.35.32-.82.58-1.3.64-.47.07-1.28-.05-1.37-.24-.07-.11 0-.23.26-.39l.43-.3.51-.4c.48-.35.6-.48.68-.58.04-.14.07-.21.07-.35 0-.14-.03-.2-.07-.33a.75.75 0 0 0-.21-.3l-.03-.02c-.17-.14-.28-.15-.44-.17l-.85.14-.9.15c-.45.07-.58.09-.64-.09 0-.2.35-.72.7-1.04l.02-.01c.34-.3.75-.46 1.2-.52h.05c.47-.05.91.03 1.33.26l.03.01c.13.08.26.16.37.25l14.37-6.09.03-.22v-.03c.1-.45.27-.87.6-1.2h.02c.34-.33.8-.58 1.27-.65h.02c.48-.07 1.3.05 1.38.24.07.1 0 .22-.26.39l-.43.3-.51.39c-.48.36-.6.49-.68.6-.04.13-.07.2-.07.34s.03.2.07.33c.07.14.1.21.24.32l.01.01c.17.13.28.14.43.16l.85-.14.9-.15c.45-.07.58-.09.64.09z"/><path fill="url(#b)" d="M25.17 9.73c-.09-.19-.9-.32-1.38-.25-.47.07-.94.33-1.29.66a2.22 2.22 0 0 0-.65 1.48l-14.37 6.2a3.1 3.1 0 0 0-.4-.27 2.16 2.16 0 0 0-1.33-.27c-.48.06-.9.21-1.25.53-.36.32-.72.87-.72 1.07.06.18.2.16.63.1l.91-.16.85-.14c.16.02.27.03.44.17.13.11.17.18.24.33.04.13.07.19.07.33s-.03.22-.07.36c-.08.1-.2.23-.68.6l-.51.4-.43.3c-.26.17-.33.29-.26.4.09.19.9.31 1.38.25.47-.07.94-.33 1.29-.66a2.22 2.22 0 0 0 .65-1.5l14.35-6.19c.13.1.27.2.42.28.42.23.86.32 1.33.26.48-.05.9-.2 1.25-.52.36-.32.72-.87.72-1.08-.06-.18-.2-.16-.63-.08l-.91.14-.85.15c-.16-.02-.27-.03-.44-.18a.75.75 0 0 1-.24-.32c-.04-.14-.07-.19-.07-.34 0-.13.03-.21.07-.35.08-.1.2-.23.68-.6l.51-.4.43-.3c.26-.17.33-.29.26-.4z" style="fill:url(#b)"/><path fill="url(#c)" d="M12.82.72c0-.37.3-.67.67-.67h.15c.37 0 .67.3.67.67v2.64h-1.5V.72Z" style="fill:url(#c)"/><path fill="url(#d)" d="M15.19.76a.67.67 0 0 1 .81-.5l.14.03c.37.08.6.44.51.8l-.59 2.58-1.45-.33Z" style="fill:url(#d)"/><path fill="url(#e)" d="M17.37 1.41a.67.67 0 0 1 .9-.3l.14.08c.33.17.46.57.29.9l-1.21 2.35-1.33-.68 1.2-2.35z" style="fill:url(#e)"/><path fill="url(#f)" d="M19.29 2.41c.22-.3.64-.36.94-.14l.12.09c.3.22.36.64.14.94l-1.57 2.12-1.2-.9z" style="fill:url(#f)"/><path fill="url(#g)" d="M20.94 3.72c.25-.27.68-.28.95-.03l.11.1c.27.25.3.68.04.95l-1.93 2.1-1.1-1 1.93-2.11z" style="fill:url(#g)"/><path fill="url(#h)" d="M12.04.77a.67.67 0 0 0-.8-.54l-.14.03a.67.67 0 0 0-.53.79l.5 2.6 1.46-.29-.5-2.6z" style="fill:url(#h)"/><path fill="url(#i)" d="M9.79 1.42a.67.67 0 0 0-.9-.3l-.14.06a.67.67 0 0 0-.3.9l1.2 2.36 1.33-.67-1.19-2.36Z" style="fill:url(#i)"/><path fill="url(#j)" d="M7.82 2.35a.67.67 0 0 0-.94-.15l-.12.09a.67.67 0 0 0-.15.94l1.55 2.14 1.21-.88Z" style="fill:url(#j)"/><path fill="url(#k)" d="M6.21 3.7a.67.67 0 0 0-.95-.02l-.1.1a.67.67 0 0 0-.03.95l1.81 1.92 1.09-1.03Z" style="fill:url(#k)"/><path d="M13.11 19.02a.8.8 0 1 1-1.58 0 .8.8 0 0 1 1.58 0z"/><path d="M14.14 19.38a.8.8 0 1 1-1.59 0 .8.8 0 0 1 1.59 0z"/><path d="M15.25 19.02a.8.8 0 1 1-1.58 0 .8.8 0 0 1 1.58 0z"/><path d="M21.44 11.06a7.965 7.965 0 1 1-15.93 0 7.965 7.965 0 0 1 15.93 0z"/><path fill="url(#l)" d="M21.15 10.92a7.665 7.665 0 1 1-15.33.01 7.665 7.665 0 0 1 15.33-.01Z" style="fill:url(#l)"/><path fill="#962202" d="M12.36 12.68a2.3 2.3 0 0 0 1.92.02c-.2.37-.55.6-.95.6-.4 0-.76-.24-.97-.62z"/><path fill="#020100" d="M18.4 14.85a1.3 1.3 0 0 0-.32-1.19c-.3-.31-.7-.42-1.1-.35.4-.3.82-.38 1.2-.1.5.37.55 1.1.22 1.64z"/><path fill="#250500" d="M17.48 13.79c1.14.13.28 2.5-.7 3.14-1 1-2.82 1.16-3.4 1.16a5.35 5.35 0 0 1-3.61-1.34c-.84-.84-1.4-2.6-.58-2.96.85.25 2.12.63 4.12.63 1.28 0 3.13-.19 4.17-.63z"/><path fill="url(#m)" d="M13.17 15.45a.65.65 0 0 1-1.3 0v-.56l.64.03.66.03z" style="fill:url(#m)"/><path fill="url(#n)" d="M13.46 15.45a.65.65 0 0 0 1.3 0v-.56l-.64.03-.66.03z" style="fill:url(#n)"/><path d="M12.64 9.49a2.11 2.11 0 1 1-4.22 0 2.11 2.11 0 0 1 4.22 0z"/><path fill="url(#o)" d="M12.11 9.52a1.44 1.44 0 1 1-2.87 0 1.44 1.44 0 0 1 2.87 0z" style="fill:url(#o)"/><path fill="url(#p)" d="M12.11 9.52a1.44 1.44 0 1 1-2.87 0 1.44 1.44 0 0 1 2.87 0z" style="fill:url(#p)"/><path d="M11.41 9.64a.5.5 0 1 1-1 0 .5.5 0 0 1 1 0zm6.6-.18a2.1 2.1 0 0 1-2.1 2.12 2.1 2.1 0 0 1-2.1-2.12 2.1 2.1 0 0 1 2.1-2.1c1.16 0 2.1.94 2.1 2.1z"/><path fill="url(#q)" d="M17.19 9.52a1.44 1.44 0 1 1-2.88 0 1.44 1.44 0 0 1 2.88 0z" style="fill:url(#q)"/><path fill="url(#r)" d="M17.19 9.52a1.44 1.44 0 1 1-2.88 0 1.44 1.44 0 0 1 2.88 0z" style="fill:url(#r)"/><path d="M16.07 9.64a.5.5 0 1 1-1 0 .5.5 0 0 1 1 0z"/><defs><linearGradient id="a" x1="11.69" x2="8.15" y1="13.46" y2="20.45" gradientUnits="userSpaceOnUse"><stop stop-color="#D0D0CF"/><stop offset="1" stop-color="#585756"/></linearGradient><linearGradient id="b" x1="15.31" x2="18.85" y1="13.57" y2="20.57" gradientUnits="userSpaceOnUse"><stop stop-color="#D0D0CF"/><stop offset="1" stop-color="#585756"/></linearGradient><linearGradient id="c" x1="13.56" x2="13.56" y1="0.05" y2="3.36" gradientUnits="userSpaceOnUse"><stop stop-color="#4A4A4A"/><stop offset=".59" stop-color="#010000"/></linearGradient><linearGradient id="d" x1="16.07" x2="15.33" y1="0.27" y2="3.50" gradientUnits="userSpaceOnUse"><stop stop-color="#4A4A4A"/><stop offset=".59" stop-color="#010000"/></linearGradient><linearGradient id="e" x1="18.34" x2="16.83" y1="1.15" y2="4.10" gradientUnits="userSpaceOnUse"><stop stop-color="#4A4A4A"/><stop offset=".59" stop-color="#010000"/></linearGradient><linearGradient id="f" x1="20.29" x2="18.32" y1="2.31" y2="4.97" gradientUnits="userSpaceOnUse"><stop stop-color="#4A4A4A"/><stop offset=".59" stop-color="#010000"/></linearGradient><linearGradient id="g" x1="21.95" x2="19.56" y1="3.74" y2="6.34" gradientUnits="userSpaceOnUse"><stop stop-color="#4A4A4A"/><stop offset=".59" stop-color="#010000"/></linearGradient><linearGradient id="h" x1="11.17" x2="11.80" y1="0.25" y2="3.50" gradientUnits="userSpaceOnUse"><stop stop-color="#4A4A4A"/><stop offset=".59" stop-color="#010000"/></linearGradient><linearGradient id="i" x1="8.82" x2="10.31" y1="1.15" y2="4.11" gradientUnits="userSpaceOnUse"><stop stop-color="#4A4A4A"/><stop offset=".59" stop-color="#010000"/></linearGradient><linearGradient id="j" x1="6.82" x2="8.77" y1="2.25" y2="4.93" gradientUnits="userSpaceOnUse"><stop stop-color="#4A4A4A"/><stop offset=".59" stop-color="#010000"/></linearGradient><linearGradient id="k" x1="5.20" x2="7.48" y1="3.73" y2="6.14" gradientUnits="userSpaceOnUse"><stop stop-color="#4A4A4A"/><stop offset=".59" stop-color="#010000"/></linearGradient><linearGradient id="l" x1="18.85" x2="10.69" y1="15.20" y2="3.87" gradientUnits="userSpaceOnUse"><stop stop-color="#FDB303"/><stop offset="1" stop-color="#FCE53A"/></linearGradient><linearGradient id="m" x1="12.52" x2="12.52" y1="14.89" y2="16.09" gradientUnits="userSpaceOnUse"><stop stop-color="#fff"/><stop offset="1" stop-color="#DBDBDB"/></linearGradient><linearGradient id="n" x1="14.11" x2="14.11" y1="14.89" y2="16.09" gradientUnits="userSpaceOnUse"><stop stop-color="#fff"/><stop offset="1" stop-color="#DBDBDB"/></linearGradient><linearGradient id="o" x1="10.26" x2="11.85" y1="7.84" y2="13.32" gradientUnits="userSpaceOnUse"><stop offset=".11" stop-color="#fff"/><stop offset=".61" stop-color="#65ACFE"/></linearGradient><linearGradient id="q" x1="15.34" x2="16.92" y1="7.84" y2="13.32" gradientUnits="userSpaceOnUse"><stop offset=".11" stop-color="#fff"/><stop offset=".61" stop-color="#65ACFE"/></linearGradient><radialGradient id="p" cx="0" cy="0" r="1" gradientTransform="matrix(.41036 3.93074 -3.14849 .3287 10.57 8.473)" gradientUnits="userSpaceOnUse"><stop offset=".44" stop-color="#fff"/><stop offset=".6" stop-color="#4399FE"/></radialGradient><radialGradient id="r" cx="0" cy="0" r="1" gradientTransform="matrix(.4107 3.9307 -3.1485 .329 15.65 8.47)" gradientUnits="userSpaceOnUse"><stop offset=".44" stop-color="#fff"/><stop offset=".6" stop-color="#4399FE"/></radialGradient></defs></svg>
