<svg width="36" height="25" fill="none" xmlns="http://www.w3.org/2000/svg"><circle cx="8" cy="14" r="7.9" fill="url(#a)"/><circle cx="8" cy="14" r="7.63" stroke="#000" stroke-opacity=".9" stroke-width=".75"/><rect x="6.5" y="10.5" width="2" height="2" rx=".5" fill="#000" fill-opacity=".9"/><rect x="10.5" y="10.5" width="2" height="2" rx=".5" fill="#000" fill-opacity=".9"/><path d="M13.25 13.75c-.1.75-.8 2.05-2.17 2.5-.75.25-1.33.25-2.33.25M4.25 13.75c.1.75.8 2.05 2.17 2.5.75.25 1.33.25 2.33.25" stroke="#000" stroke-opacity=".9" stroke-width="1.1"/><path fill="#000" d="M0 8h16v1H0zM2 7h12v1H2z"/><path fill="#98968E" d="M3 6h10v1H3z"/><path d="M3 .5c0-.27.22-.5.5-.5h9c.28 0 .5.23.5.5V6H3V.5Z" fill="#000"/><path d="M7.88 22.18c0 .37-.3.68-.69.68l-3.57 1.13a.68.68 0 0 1-.68-.68v-3.58c0-.37.3-.68.68-.68l3.57 1.14c.38 0 .69.3.69.68v1.3ZM8.5 22.18c0 .37.3.68.68.68l3.58 1.13c.37 0 .68-.3.68-.68v-3.58c0-.37-.3-.68-.68-.68L9.18 20.2c-.38 0-.68.3-.68.68v1.3Z" fill="#575757"/><path d="M9.04 20.02h-1.6a.76.76 0 0 0-.39.11c.11.6.18 1.65-.12 2.81a.76.76 0 0 0 .52.2h1.6c.41 0 .76-.34.76-.76v-1.6a.76.76 0 0 0-.77-.76Z" fill="#3B3B3B"/><path d="M9.95 21.97c0 .05.02.1.05.09l1.45-.65c.03 0 .06-.06.06-.11 0-.06-.03-.1-.06-.1l-1.42-.2c-.03 0-.06.06-.06.11l-.02.86ZM6.92 22c0 .06-.02.1-.06.1l-1.44-.65c-.03 0-.06-.05-.06-.11 0-.05.02-.1.05-.09l1.43-.2c.03 0 .06.05.06.1l.02.86Z" fill="#828282"/><path d="M31 5.5c1.93.86 3 4.5 3 4.5v10.37c0 .08.02.17.07.25l.86 1.51a.5.5 0 0 1 .07.25v1.1a.5.5 0 0 1-.53.5l-2.86-.17a1 1 0 0 1-.93-1.15l.82-5.16s1-2.5 1-4.5-4-4.5-6.5-4.5-5.5 1.5-5.5 4.5c0 2.31.6 7.46.87 9.69a1 1 0 0 1-.94 1.12l-2.9.16a.5.5 0 0 1-.53-.5v-1.35a.5.5 0 0 1 .05-.23l.9-1.78a.5.5 0 0 0 .05-.23V10s1.07-3.64 3-4.5c1.8-.8 5 .5 5 .5s3.2-1.3 5-.5Z" fill="#E6E4DF"/><circle cx="26" cy="14" r="7.9" fill="url(#b)"/><circle cx="26" cy="14" r="7.63" stroke="#000" stroke-opacity=".9" stroke-width=".75"/><rect x="21.5" y="10.5" width="2" height="2" rx=".5" fill="#000" fill-opacity=".9"/><rect x="25.5" y="10.5" width="2" height="2" rx=".5" fill="#000" fill-opacity=".9"/><path d="M29.75 13.75c-.1.75-.8 2.05-2.17 2.5-.75.25-1.33.25-2.33.25M20.75 13.75c.1.75.8 2.05 2.17 2.5.75.25 1.33.25 2.33.25" stroke="#000" stroke-opacity=".9" stroke-width="1.1"/><g filter="url(#c)"><path d="M31 5.5c1.93.86 2.2 2.55 3 4.5 1.39 3.37.31 9.04.05 10.26-.03.15 0 .31.1.43.25.33.71 1 .85 1.56.1.4.08.95.05 1.32a.47.47 0 0 1-.48.43H33a.5.5 0 0 1-.5-.5c.04-3.52.5-7 .5-10.5 0-2-4.5-4.5-7-4.5S19 10 19 13c0 2.53.36 8.63.47 10.47a.5.5 0 0 1-.5.53h-1.53a.48.48 0 0 1-.48-.43A5.9 5.9 0 0 1 17 22c.14-.64.64-1.46.88-1.82.07-.11.1-.26.07-.4-.23-1.13-1.25-6.55.05-9.78.8-1.96 1.07-3.64 3-4.5 1.8-.8 5 .5 5 .5s3.2-1.3 5-.5Z" fill="#DBD5CE" fill-opacity=".85"/></g><path fill-rule="evenodd" clip-rule="evenodd" d="M31 5.5c1.58.7 2.04 1.96 2.6 3.46.12.34.25.68.4 1.04 1.39 3.37.31 9.04.05 10.26-.03.15 0 .31.1.43.25.33.71 1 .85 1.56.1.4.08.95.05 1.32a.47.47 0 0 1-.48.43H33a.5.5 0 0 1-.5-.5c.02-1.68.14-3.36.25-5.03l.01-.2a8 8 0 1 0-13.59-.1c.11 2.2.24 4.34.3 5.3a.5.5 0 0 1-.5.53h-1.53a.48.48 0 0 1-.48-.43A5.9 5.9 0 0 1 17 22c.14-.64.64-1.46.88-1.82.07-.11.1-.26.07-.4-.23-1.13-1.25-6.55.05-9.78.14-.34.26-.67.38-1 .56-1.52 1.03-2.79 2.62-3.5 1.8-.8 5 .5 5 .5s3.2-1.3 5-.5Z" fill="#CFCDC6"/><g clip-path="url(#d)"><path d="m28.87 5.82-1.88 3.21a.3.3 0 0 0 .37.41l.45-.13a.3.3 0 0 1 .36.15l.22.41c.12.23.45.21.55-.02l1.21-3.66a.3.3 0 0 0-.16-.4l-.72-.14a.3.3 0 0 0-.4.17Z" fill="#F0AF82"/><path d="M31.13 5.82 33 9.03a.3.3 0 0 1-.36.41l-.46-.13a.3.3 0 0 0-.35.15l-.22.41a.3.3 0 0 1-.55-.02l-1.21-3.66a.3.3 0 0 1 .16-.4l.72-.14a.3.3 0 0 1 .4.17Z" fill="#F0AF82"/><path d="m27.17 4.06.11-.04a.7.7 0 0 1 .29 0c.11.03.24.08.38.16l.2.15.22.16.2.17c.08.05.14.12.2.17l.2.18.16.17a5.17 5.17 0 0 1 .33.4c.3.4.22.96-.18 1.26l-.02.02-.13.08-.31.2-.21.1-.23.11-.25.11-.25.1-.25.08-.24.07c-.16.04-.3.05-.42.04a.7.7 0 0 1-.27-.1.47.47 0 0 1-.1-.07 2.27 2.27 0 0 1 .57-3.52ZM33.4 7.58l-.1.07a.7.7 0 0 1-.28.1c-.11 0-.25 0-.4-.04l-.25-.07-.25-.09-.25-.1c-.08-.02-.17-.07-.25-.1a2.87 2.87 0 0 1-.23-.11l-.2-.11a5.26 5.26 0 0 1-.45-.28.9.9 0 0 1-.22-1.24l.02-.03.09-.12.24-.28.17-.17.18-.18.2-.18.21-.17.21-.16c.08-.04.14-.1.21-.14.14-.09.27-.14.38-.16a.73.73 0 0 1 .29 0c.07.01.11.04.11.04a2.27 2.27 0 0 1 .56 3.52Z" fill="#60AB58"/><path d="M30 7.44a1.09 1.09 0 1 0 0-2.17 1.09 1.09 0 0 0 0 2.17Z" fill="#3F8D36"/><path d="M29.37 6.27a.22.22 0 0 1-.2-.3c.07-.17.19-.3.34-.4.1-.06.24-.02.3.08s.02.24-.08.3a.39.39 0 0 0-.16.19.21.21 0 0 1-.2.13Z" fill="#F0AF82"/></g><defs><radialGradient id="a" cx="0" cy="0" r="1" gradientUnits="userSpaceOnUse" gradientTransform="rotate(59.99 -4.48 8.4) scale(12.7918)"><stop stop-color="#FAFAE3"/><stop offset=".23" stop-color="#FFFFA2"/><stop offset=".66" stop-color="#FFEF06"/><stop offset="1" stop-color="#C7B300"/></radialGradient><radialGradient id="b" cx="0" cy="0" r="1" gradientUnits="userSpaceOnUse" gradientTransform="rotate(59.99 4.52 24) scale(12.7918)"><stop stop-color="#FAFAE3"/><stop offset=".23" stop-color="#FFFFA2"/><stop offset=".66" stop-color="#FFEF06"/><stop offset="1" stop-color="#C7B300"/></radialGradient><clipPath id="d"><path fill="#fff" transform="translate(26 4)" d="M0 0h8v6.04H0z"/></clipPath><filter id="c" x="16.42" y="4.74" width="19.15" height="19.76" filterUnits="userSpaceOnUse" color-interpolation-filters="sRGB"><feFlood flood-opacity="0" result="BackgroundImageFix"/><feGaussianBlur in="BackgroundImageFix" stdDeviation=".25"/><feComposite in2="SourceAlpha" operator="in" result="effect1_backgroundBlur_231_2674"/><feBlend mode="normal" in="SourceGraphic" in2="effect1_backgroundBlur_231_2674" result="shape"/></filter></defs></svg>
