<svg width="16" height="16" fill="none" xmlns="http://www.w3.org/2000/svg"><circle cx="8" cy="8" r="7.9" fill="url(#a)"/><circle cx="8" cy="8" r="7.63" stroke="#000" stroke-opacity=".9" stroke-width=".75"/><rect x="5" y="5" width="2" height="2" rx=".5" fill="#000" fill-opacity=".9"/><rect x="10" y="5" width="2" height="2" rx=".5" fill="#000" fill-opacity=".9"/><path d="M13 9.5c-.1.75-.8 1.8-2.17 2.25-.75.25-1.33.25-2.33.25M4 9.5c.1.75.8 1.8 2.17 2.25.75.25 1.33.25 2.33.25" stroke="#000" stroke-opacity=".9" stroke-width="1.1"/><path opacity=".9" fill-rule="evenodd" clip-rule="evenodd" d="M3 5.15a3.19 3.19 0 0 1-.86-.13c-.32-.1-.59-.3-.75-.6a1.97 1.97 0 0 1-.19-.85V2.6h1.1v.93c0 .24.04.34.06.38 0 0 .02.03.12.07.13.04.36.07.76.07A2 2 0 0 1 5 3h2a2 2 0 0 1 1.5.68A2 2 0 0 1 10 3h2a2 2 0 0 1 1.73.99l.04-.01c.1-.04.12-.06.12-.07a.98.98 0 0 0 .06-.38V2.6h1.1v.96c-.01.27-.04.58-.19.85a1.24 1.24 0 0 1-.86.63V7a2 2 0 0 1-2 2h-2a2 2 0 0 1-1.5-.68A2 2 0 0 1 7 9H5a2 2 0 0 1-2-2V5.15ZM9 7a1 1 0 0 0 1 1h2a1 1 0 0 0 1-1V5a1 1 0 0 0-1-1h-2a1 1 0 0 0-1 1v2ZM8 5a1 1 0 0 0-1-1H5a1 1 0 0 0-1 1v2a1 1 0 0 0 1 1h2a1 1 0 0 0 1-1V5Z" fill="#FA0000"/><defs><radialGradient id="a" cx="0" cy="0" r="1" gradientUnits="userSpaceOnUse" gradientTransform="rotate(59.99 .72 5.4) scale(12.7918)"><stop stop-color="#FAFAE3"/><stop offset=".23" stop-color="#FFFFA2"/><stop offset=".66" stop-color="#FFEF06"/><stop offset="1" stop-color="#C7B300"/></radialGradient></defs></svg>