<svg xmlns="http://www.w3.org/2000/svg" width="18" height="18"><path d="M17.908476 7.7097604c-.25919-.714519-.99322-1.107437-1.96454-1.052906l-.73003-.01853c-1.34865-.03804-1.71238-.04678-2.91291.438842-.0973-.170535-.19043-.339154-.27601-.503086.32927-.01287 1.00187-.06574 1.72175-.279937.58629-.174455 1.15652-.413111 1.70855-.781149.76684-.511223.59592-1.992918.46862-2.683921-.1491-.809437-.57048-1.20457-.87334-1.576272-.93724-1.15025099-1.36326-.93724199-1.36326-.93724199s.97985 1.02244599 1.23546 2.51351399c.1281.747365-.65961 1.37127-1.44847 1.618873-.60192.188982-1.40428.174668-2.48403.171132-.44758-.667828-1.00511-1.108374-1.9891696-1.108374-.95041 0-1.53469.435136-2.0106 1.108928-1.08694.0064-1.87452.04188-2.48024-.148255-.78882-.247645-1.57657-.871508-1.44846-1.618873.25561-1.491068 1.23545-2.51351399 1.23545-2.51351399s-.42602-.213009-1.36326.93724299c-.30281.371701-.72423.766834-.87334 1.576271-.12729.691003-.29821 2.172698.46862 2.683921.55204.368038 1.12227.606694 1.70855.781106.6951.20679 1.34784.263451 1.68836.27866-.0807.162398-.16581.328759-.25412.497675-1.17935-.474756-1.54717-.465596-2.88586-.427851l-.73002.01853c-.97128-.05453-1.70530998.338387-1.96449998 1.052906-.20854.574871-.0517 1.219949.37293 1.533797.57576998.425594 1.25279998.7314756 2.29879998.09368l.21778-.134153c.59899-.370978.84748-.523706 1.7241-.527966-.25484.430152-.56869.964678-.95219 1.6234736-1.76078 3.025035.0821 6.171571 1.11446 6.665795 1.66178.795591 2.31465.662376 4.26049.662376 1.9458496 0 3.1622596.154431 4.1968496-.938223 2.55556-2.698832 1.51982-5.789687.0285-8.0406866.82954.01074 1.07996.164869 1.66544.527497l.21778.134154c1.046.637835 1.72303.33191 2.2988-.09368.42461-.313848.58143-.958883.37293-1.533796zm-3.56561 4.5431116c-.0614.0035-.12631.0075-.19631.0121-.75733.04895-2.16699.140118-2.4848-.553314-.19315-.421418-1.65104-.489283-2.7952796-.489283-1.1442 0-2.35678-.05398-2.72865.596768-.26716.467513-.47387.483915-2.01133.471603l-.52281-.0026c.0718-.551056.25378-1.124777.59128-1.704631 1.57094-2.6987896 1.79004-2.9992606 1.79861-3.0107206l.0112-.01508c.003-.0039.012-.02049.012-.02049.21591-.40097.39978-.776889.5776-1.140454.69944-1.429976 1.16154-2.374717 2.40667-2.374717 1.1906796 0 1.5708996.772885 2.2007296 2.053243.33643.683931.71776 1.459116 1.31239 2.285252.85771 1.191576 1.6311 2.5017126 1.82869 3.8923676z"/><path fill="#fff" d="M3.6241234 12.202466c.0543041-.377412.2110723-.876393.3953338-1.258314.1607647-.33322 1.3312252-2.3322809 1.8379552-3.139094.1503429-.2393754.3475493-.6095876.7072527-1.3277134.2743291-.5476818.5601512-1.0982087.6351604-1.2233931.3530081-.5891437.683904-.9208006 1.0854817-1.0879778.2383819-.0992387.3994106-.1261574.7431438-.1242293.2642468.00148.3276345.00815.4903517.05156.4194457.1119085.7344683.3581786 1.0354353.8094544.166797.2501.252133.408013.661279 1.2236896.582039 1.160357.813944 1.5595433 1.349821 2.3234984.789019 1.1248386 1.221029 1.9136202 1.51021 2.7574032.118115.344639.277207 1.000484.249432 1.028259-.02442.02442-.67825.04853-1.095265.04039-.908997-.01774-1.312468-.160539-1.547717-.5478-.0382-.06289-.101579-.134191-.146526-.164845-.216-.14732-.609522-.238908-1.321563-.307584-.3278868-.03162-2.3519204-.0457-2.6866946-.01868-.4738782.03824-.726517.0944-.9834842.218612-.1987074.09605-.3179238.207072-.4630243.431194-.1409898.217773-.2722922.300232-.5714596.358877-.059817.01173-.4822961.02426-1.0002632.02967l-.8967071.0094z"/><path d="M8.2875164 7.8348394c-.76684.02075-.80944.426019-.0213.468622.78813.0426.80943-.489922.0213-.468622z"/><path d="M9.8105364 7.8454904c-.76684.02075-.80944.426019-.0213.468621.7881296.0426.8094296-.489922.0213-.468621z"/><path fill="#7f7f7f" d="M14.609726 6.9649084c-.21501.100115-.42457.225918-.64184.385292-.18332.134494-.84493.253694-1.31218.311676-.0631-.09692-.12214-.192689-.18017-.288032.90832-.364672 1.29088-.42112 2.13423-.408936zm-9.1097396.426914c-.0456.07072-.10659.167979-.18417.294252-.46521-.05926-1.10403-.1765-1.28359-.308183-.21732-.159331-.42683-.285134-.64184-.385292.83542-.01206 1.21943.04367 2.10956.399223z"/><path fill="#fff" d="m2.8017964 8.9409994-.21574.132917c-.91773.559576-1.45115.268946-1.91878998-.07677-.3012-.222595-.41085-.714179-.25514-1.143479.20892-.575978.80478998-.877983 1.63479998-.828564.73621.04384 1.2197.213947 1.78383.627654.24279.178076.88403.293314 1.29195.351082-.0649.107528-.13663.227196-.21616.360413-1.1382-.01755-1.43842.164103-2.10471.576745z"/><path fill="#7f7f7f" d="M12.941986 16.377633c-.68146.770796-2.27115.765854-3.8564496.765854-1.58526 0-2.83303.04776-3.8749-.530521-.65403-.362969-1.66463-1.995133-1.64363-3.813852l.55545.0028c1.52097.01218 2.03334.01627 2.45932-.729175.21978-.384653 1.1523-.339197 2.28602-.339197 1.1337196 0 2.1240896-.0052 2.3380396.206663.47394.995563 2.03713.895449 2.97378.834869.0752-.0049.14493-.0093.20866-.01282.0414 1.160562-.34754 2.372544-1.44624 3.61537z"/><path fill="#fff" d="M17.332926 8.9694574c-.46768.345671-1.00106.636345-1.91879.07677l-.21578-.132919c-.6605-.409106-.96148-.591102-2.0754-.577128-.0643-.0924-.232-.330719-.25203-.359134.40758-.05751 1.0544-.173007 1.29851-.35202.56413-.413707 1.04758-.583817 1.78383-.627612.83001-.04942 1.42584.252587 1.6348.828565.15571.429299.0461.920883-.25514 1.143478z"/><path d="M6.7005964 13.650002c-1.00115 0-1.08635.553825 0 .553825s1.0659-.553825 0-.553825zm4.4412496-.031952c-1.00115 0-1.08635.553826 0 .553826s1.0659-.553826 0-.553826z"/></svg>
