<svg width="16" height="16" fill="none" xmlns="http://www.w3.org/2000/svg"><circle cx="8" cy="8" r="7.9" fill="url(#a)"/><circle cx="8" cy="8" r="7.63" stroke="#000" stroke-opacity=".9" stroke-width=".75"/><path fill-rule="evenodd" clip-rule="evenodd" d="M10 5a.5.5 0 0 0-.5.5v1c0 .28.22.5.5.5h2a.5.5 0 0 0 0-1h-.5v-.5A.5.5 0 0 0 11 5h-1ZM7 5c.28 0 .5.23.5.5v1A.5.5 0 0 1 7 7H5a.5.5 0 0 1 0-1h.5v-.5c0-.27.22-.5.5-.5h1Z" fill="#000" fill-opacity=".9"/><path d="M12 12c0-.5-.7-1.25-1.35-1.5-.65-.25-2-.25-2.15-.25M5 12c0-.5.7-1.25 1.35-1.5.65-.25 2-.25 2.15-.25" stroke="#000" stroke-opacity=".9" stroke-width=".75"/><path d="M5.23 7.1c0 .05-.03 1-.32 1.27a.78.78 0 0 1-1.06 0 .68.68 0 0 1 0-1c.3-.26 1.3-.29 1.35-.29.02 0 .03.01.03.03Zm-1.5 1.48c0 .04-.03 1-.32 1.26a.78.78 0 0 1-1.06 0 .68.68 0 0 1 0-1c.3-.26 1.3-.29 1.35-.29.02 0 .03.01.03.03Z" fill="#00F" fill-opacity=".2"/><path d="M11.5 7h-1v.5a.5.5 0 0 0 1 0V7Zm-5 0h-1v2a.5.5 0 0 0 1 0V7Z" fill="#000" fill-opacity=".5"/><defs><radialGradient id="a" cx="0" cy="0" r="1" gradientUnits="userSpaceOnUse" gradientTransform="rotate(59.99 .72 5.4) scale(12.7918)"><stop stop-color="#FAFAE3"/><stop offset=".23" stop-color="#FFFFA2"/><stop offset=".66" stop-color="#FFEF06"/><stop offset="1" stop-color="#C7B300"/></radialGradient></defs></svg>