<svg xmlns="http://www.w3.org/2000/svg" width="16" height="16">
    <style>
        @keyframes a1{69%{transform:scale(0)}77%,92%{transform:scale(2)}85%{transform:scale(.75)}}
        @media(prefers-reduced-motion){*{animation:none!important}}
    </style>
    <defs>
        <radialGradient id="a" cx="0" cy="0" r="13" gradientTransform="rotate(60 .72 5.4)" gradientUnits="userSpaceOnUse">
            <stop stop-color="#fafae3"/>
            <stop offset=".23" stop-color="#ffffa2"/>
            <stop offset=".66" stop-color="#ffef06"/>
            <stop offset="1" stop-color="#c7b300"/>
        </radialGradient>
        <filter id="f" width="400%" height="400%" x="-150%" y="-150%"><feGaussianBlur stdDeviation=".1"/></filter>
    </defs>
    <circle cx="8" cy="8" r="7.9" fill="url(#a)"/>
    <circle cx="8" cy="8" r="7.63" fill="none" stroke="#000" stroke-opacity=".9" stroke-width=".75"/>
    <rect width="2" height="2" x="5.5" y="4.5" fill-opacity=".9" rx=".5" ry=".5"/>
    <rect width="2" height="2" x="9.5" y="4.5" fill-opacity=".9" rx=".5" ry=".5"/>
    <path fill="#fff" d="M4 9h8.5s-1.5 3.5-4 3.5S4 9 4 9Z"/>
    <path fill-opacity=".9" fill-rule="evenodd" d="M13.3 8.43a.72.72 0 0 0 .12-.52.8.8 0 0 0-.2-.44.54.54 0 0 0-.63-.13c-.2.1-.33.3-.43.5l.47.22-.22.32a7.04 7.04 0 0 0-.37.05c-.27.04-.65.1-1.12.2-1.14.24-2.35.24-2.67.24-.31 0-1.53 0-2.67-.24a18.64 18.64 0 0 0-1.43-.24l-.23-.33.47-.22c-.1-.2-.23-.4-.43-.5a.54.54 0 0 0-.63.13.8.8 0 0 0-.2.44c-.02.15 0 .35.13.52.33.44.47.71.56.89l.06.11a8.33 8.33 0 0 0 1.37 1.79l.03.03v.01l.28-.26-.27.26.27-.26-.27.27.02.02a4.48 4.48 0 0 0 .25.23c.17.14.4.34.69.54.52.37 1.26.79 2 .81h.06a3.98 3.98 0 0 0 2-.81 8.34 8.34 0 0 0 .93-.77l.02-.02L11 11l.27.27L11 11l.27.26.04-.04a9.85 9.85 0 0 0 1.43-1.9c.09-.18.23-.45.56-.9Zm-5.02 3.7c.5-.02 1.08-.32 1.6-.69a7.59 7.59 0 0 0 .84-.7h.01l.01-.01.03-.03a8.99 8.99 0 0 0 1.17-1.5l-.87.17c-1.23.26-2.5.25-2.82.25-.33 0-1.6 0-2.83-.25-.3-.07-.58-.12-.8-.15a8.2 8.2 0 0 0 1.17 1.48l.02.03h.01l.01.02a4.3 4.3 0 0 0 .23.2c.15.14.37.32.62.5.51.36 1.1.66 1.6.67Z"/>
    <path fill="none" stroke="#000" stroke-opacity=".2" stroke-width=".75" d="M4.5 7.01c-.69-.07-1.35.24-1.4.6S3 9.01 3 9.01m9-2c.69-.07 1.35.24 1.4.6s.1 1.4.1 1.4"/>
    <path fill="#fff" d="m6.5 5.5.54 2.92L8.5 9.5l-1.46 1.08-.54 2.92-.54-2.92L4.5 9.5l1.46-1.08Z" filter="url(#f)" style="animation:a1 2.6s linear infinite;transform:scale(0);transform-origin:6.5px 9.5px"/>
</svg>
