<svg width="38" height="18" fill="none" xmlns="http://www.w3.org/2000/svg"><circle cx="19" cy="10" r="7.9" fill="url(#a)"/><circle cx="19" cy="10" r="7.6" stroke="#000" stroke-opacity=".9" stroke-width=".8"/><rect x="16.5" y="6" width="2" height="2" rx=".5" fill="#000" fill-opacity=".9"/><rect x="20.5" y="6" width="2" height="2" rx=".5" fill="#000" fill-opacity=".9"/><path d="M23.8 9.8a4 4 0 0 1-2.2 2.5c-.8.2-1.4.2-2.4.2" stroke="#000" stroke-opacity=".9" stroke-width="1.1"/><path d="M14.8 9.8c0 .7.8 2 2.1 2.5.8.2 1.4.2 2.4.2" stroke="#000" stroke-opacity=".9" stroke-width="1.1"/><g clip-path="url(#b)"><mask id="d" maskUnits="userSpaceOnUse" x="27.6" y="1" width="9" height="16" fill="#000"><path fill="#fff" d="M27.6 1h9v16h-9z"/><path d="M33.3 15.3h-1.5c-.6-.1-1.4-.3-1.9-.7a1 1 0 0 0-.5-.2h-.1c-.4-.2-.7-.7-.7-1.3V9.3c0-.5.3-1 .6-1 0 0 .7-.5 1.5-1.4.3-.4.8-1 1-1.7l.2-2 .2-1c.2-.2.4-.2.6-.2.6 0 1.2.8 1.2 1.6 0 .6 0 1.3-.2 2s-.3 1.4-.2 1.9h.7c.6 0 1.2.8 1.2 1.8l-1.1 5c0 1 0 1-1 1Z"/></mask><path d="M33.3 15.3h-1.5c-.6-.1-1.4-.3-1.9-.7a1 1 0 0 0-.5-.2h-.1c-.4-.2-.7-.7-.7-1.3V9.3c0-.5.3-1 .6-1 0 0 .7-.5 1.5-1.4.3-.4.8-1 1-1.7l.2-2 .2-1c.2-.2.4-.2.6-.2.6 0 1.2.8 1.2 1.6 0 .6 0 1.3-.2 2s-.3 1.4-.2 1.9h.7c.6 0 1.2.8 1.2 1.8l-1.1 5c0 1 0 1-1 1Z" fill="url(#c)"/><path d="M33.3 15.3h-1.5c-.6-.1-1.4-.3-1.9-.7a1 1 0 0 0-.5-.2h-.1c-.4-.2-.7-.7-.7-1.3V9.3c0-.5.3-1 .6-1 0 0 .7-.5 1.5-1.4.3-.4.8-1 1-1.7l.2-2 .2-1c.2-.2.4-.2.6-.2.6 0 1.2.8 1.2 1.6 0 .6 0 1.3-.2 2s-.3 1.4-.2 1.9h.7c.6 0 1.2.8 1.2 1.8l-1.1 5c0 1 0 1-1 1Z" stroke="#2B2709" stroke-width="1.6" mask="url(#d)"/><mask id="f" maskUnits="userSpaceOnUse" x="30.5" y="5.9" width="6" height="4" fill="#000"><path fill="#fff" d="M30.5 5.9h6v4h-6z"/><path d="M33.3 9.2c-.8 0-1.8-.2-1.8-1 0-.2 0-.4.2-.6.3-.4 1.2-.7 2.4-.7h.8c.4 0 .8.5.8 1 0 .6-.3 1-.7 1V9l-1.7.2Z"/></mask><path d="M33.3 9.2c-.8 0-1.8-.2-1.8-1 0-.2 0-.4.2-.6.3-.4 1.2-.7 2.4-.7h.8c.4 0 .8.5.8 1 0 .6-.3 1-.7 1V9l-1.7.2Z" fill="url(#e)"/><path d="M33.3 9.2c-.8 0-1.8-.2-1.8-1 0-.2 0-.4.2-.6.3-.4 1.2-.7 2.4-.7h.8c.4 0 .8.5.8 1 0 .6-.3 1-.7 1V9l-1.7.2Z" stroke="#2B2709" stroke-width="1.4" mask="url(#f)"/><mask id="h" maskUnits="userSpaceOnUse" x="30.6" y="8.2" width="7" height="4" fill="#000"><path fill="#fff" d="M30.6 8.2h7v4h-7z"/><path d="M33.8 11.5c-1 0-2.2-.2-2.2-1.1 0-1 1.2-1.2 2.2-1.2.9 0 1.7.2 1.7.2.4 0 .7.5.7 1 0 .4-.3 1-.7 1l-1.7.1Z"/></mask><path d="M33.8 11.5c-1 0-2.2-.2-2.2-1.1 0-1 1.2-1.2 2.2-1.2.9 0 1.7.2 1.7.2.4 0 .7.5.7 1 0 .4-.3 1-.7 1l-1.7.1Z" fill="url(#g)"/><path d="M33.8 11.5c-1 0-2.2-.2-2.2-1.1 0-1 1.2-1.2 2.2-1.2.9 0 1.7.2 1.7.2.4 0 .7.5.7 1 0 .4-.3 1-.7 1l-1.7.1Z" stroke="#2B2709" stroke-width="1.4" mask="url(#h)"/><mask id="j" maskUnits="userSpaceOnUse" x="29.5" y="12.8" width="6" height="4" fill="#000"><path fill="#fff" d="M29.5 12.8h6v4h-6z"/><path d="M33.6 15.8c-.4 0-2.3 0-3-.7a.6.6 0 0 1-.1-.4c0-.5.8-.9 2.3-.9h1l.5.4c.2.2.2.4.2.7 0 .5-.3 1-.8 1Z"/></mask><path d="M33.6 15.8c-.4 0-2.3 0-3-.7a.6.6 0 0 1-.1-.4c0-.5.8-.9 2.3-.9h1l.5.4c.2.2.2.4.2.7 0 .5-.3 1-.8 1Z" fill="url(#i)"/><path d="M33.6 15.8c-.4 0-2.3 0-3-.7a.6.6 0 0 1-.1-.4c0-.5.8-.9 2.3-.9h1l.5.4c.2.2.2.4.2.7 0 .5-.3 1-.8 1Z" stroke="#2B2709" stroke-width="1.4" mask="url(#j)"/><mask id="l" maskUnits="userSpaceOnUse" x="30.2" y="10.6" width="7" height="4" fill="#000"><path fill="#fff" d="M30.2 10.6h7v4h-7z"/><path d="M34 13.6c-.8 0-2.8 0-2.8-1 0-.8 1.4-1 2.3-1a11 11 0 0 1 1.4.1c.3 0 .8.2.8.8 0 .6-.4 1.1-.8 1.1H34Z"/></mask><path d="M34 13.6c-.8 0-2.8 0-2.8-1 0-.8 1.4-1 2.3-1a11 11 0 0 1 1.4.1c.3 0 .8.2.8.8 0 .6-.4 1.1-.8 1.1H34Z" fill="url(#k)"/><path d="M34 13.6c-.8 0-2.8 0-2.8-1 0-.8 1.4-1 2.3-1a11 11 0 0 1 1.4.1c.3 0 .8.2.8.8 0 .6-.4 1.1-.8 1.1H34Z" stroke="#2B2709" stroke-width="1.4" mask="url(#l)"/></g><g clip-path="url(#m)"><mask id="o" maskUnits="userSpaceOnUse" x="1.4" y="1" width="9" height="16" fill="#000"><path fill="#fff" d="M1.4 1h9v16h-9z"/><path d="M4.7 15.3h1.5c.6-.1 1.4-.3 1.9-.7.1-.2.3-.2.5-.2h.1c.4-.2.7-.7.7-1.3V9.3c0-.5-.3-1-.6-1 0 0-.7-.5-1.5-1.4-.3-.4-.8-1-1-1.7l-.2-2-.2-1a.8.8 0 0 0-.6-.2c-.6 0-1.2.8-1.2 1.6 0 .6 0 1.3.2 2s.3 1.4.2 1.9h-.7c-.6 0-1.2.8-1.2 1.8l1.1 5c0 1 0 1 1 1Z"/></mask><path d="M4.7 15.3h1.5c.6-.1 1.4-.3 1.9-.7.1-.2.3-.2.5-.2h.1c.4-.2.7-.7.7-1.3V9.3c0-.5-.3-1-.6-1 0 0-.7-.5-1.5-1.4-.3-.4-.8-1-1-1.7l-.2-2-.2-1a.8.8 0 0 0-.6-.2c-.6 0-1.2.8-1.2 1.6 0 .6 0 1.3.2 2s.3 1.4.2 1.9h-.7c-.6 0-1.2.8-1.2 1.8l1.1 5c0 1 0 1 1 1Z" fill="url(#n)"/><path d="M4.7 15.3h1.5c.6-.1 1.4-.3 1.9-.7.1-.2.3-.2.5-.2h.1c.4-.2.7-.7.7-1.3V9.3c0-.5-.3-1-.6-1 0 0-.7-.5-1.5-1.4-.3-.4-.8-1-1-1.7l-.2-2-.2-1a.8.8 0 0 0-.6-.2c-.6 0-1.2.8-1.2 1.6 0 .6 0 1.3.2 2s.3 1.4.2 1.9h-.7c-.6 0-1.2.8-1.2 1.8l1.1 5c0 1 0 1 1 1Z" stroke="#2B2709" stroke-width="1.6" mask="url(#o)"/><mask id="q" maskUnits="userSpaceOnUse" x="1.5" y="5.9" width="6" height="4" fill="#000"><path fill="#fff" d="M1.5 5.9h6v4h-6z"/><path d="M4.7 9.2c.8 0 1.8-.2 1.8-1 0-.2 0-.4-.2-.6C6 7.2 5.1 7 4 7H3c-.4 0-.8.5-.8 1 0 .6.3 1 .7 1.1l1.7.2Z"/></mask><path d="M4.7 9.2c.8 0 1.8-.2 1.8-1 0-.2 0-.4-.2-.6C6 7.2 5.1 7 4 7H3c-.4 0-.8.5-.8 1 0 .6.3 1 .7 1.1l1.7.2Z" fill="url(#p)"/><path d="M4.7 9.2c.8 0 1.8-.2 1.8-1 0-.2 0-.4-.2-.6C6 7.2 5.1 7 4 7H3c-.4 0-.8.5-.8 1 0 .6.3 1 .7 1.1l1.7.2Z" stroke="#2B2709" stroke-width="1.4" mask="url(#q)"/><mask id="s" maskUnits="userSpaceOnUse" x=".4" y="8.2" width="7" height="4" fill="#000"><path fill="#fff" d="M.4 8.2h7v4h-7z"/><path d="M4.2 11.5c1 0 2.2-.2 2.2-1.1 0-1-1.2-1.2-2.2-1.2-.9 0-1.7.2-1.7.2-.4 0-.7.5-.7 1 0 .4.3 1 .7 1l1.7.1Z"/></mask><path d="M4.2 11.5c1 0 2.2-.2 2.2-1.1 0-1-1.2-1.2-2.2-1.2-.9 0-1.7.2-1.7.2-.4 0-.7.5-.7 1 0 .4.3 1 .7 1l1.7.1Z" fill="url(#r)"/><path d="M4.2 11.5c1 0 2.2-.2 2.2-1.1 0-1-1.2-1.2-2.2-1.2-.9 0-1.7.2-1.7.2-.4 0-.7.5-.7 1 0 .4.3 1 .7 1l1.7.1Z" stroke="#2B2709" stroke-width="1.4" mask="url(#s)"/><mask id="u" maskUnits="userSpaceOnUse" x="2.5" y="12.9" width="6" height="4" fill="#000"><path fill="#fff" d="M2.5 12.9h6v4h-6z"/><path d="M4.4 15.9c.4 0 2.3 0 3-.8l.1-.4c0-.5-.8-.8-2.3-.8h-1l-.5.3a1 1 0 0 0-.2.7c0 .5.3 1 .8 1Z"/></mask><path d="M4.4 15.9c.4 0 2.3 0 3-.8l.1-.4c0-.5-.8-.8-2.3-.8h-1l-.5.3a1 1 0 0 0-.2.7c0 .5.3 1 .8 1Z" fill="url(#t)"/><path d="M4.4 15.9c.4 0 2.3 0 3-.8l.1-.4c0-.5-.8-.8-2.3-.8h-1l-.5.3a1 1 0 0 0-.2.7c0 .5.3 1 .8 1Z" stroke="#2B2709" stroke-width="1.4" mask="url(#u)"/><mask id="w" maskUnits="userSpaceOnUse" x=".8" y="10.6" width="7" height="4" fill="#000"><path fill="#fff" d="M.8 10.6h7v4h-7z"/><path d="M4 13.6c.8 0 2.8 0 2.8-1 0-.8-1.4-1-2.3-1l-1.3.1c-.4 0-.9.2-.9.8 0 .6.4 1.1.8 1.1H4Z"/></mask><path d="M4 13.6c.8 0 2.8 0 2.8-1 0-.8-1.4-1-2.3-1l-1.3.1c-.4 0-.9.2-.9.8 0 .6.4 1.1.8 1.1H4Z" fill="url(#v)"/><path d="M4 13.6c.8 0 2.8 0 2.8-1 0-.8-1.4-1-2.3-1l-1.3.1c-.4 0-.9.2-.9.8 0 .6.4 1.1.8 1.1H4Z" stroke="#2B2709" stroke-width="1.4" mask="url(#w)"/></g><defs><radialGradient id="a" cx="0" cy="0" r="1" gradientUnits="userSpaceOnUse" gradientTransform="rotate(60 4.5 16) scale(12.7918)"><stop stop-color="#FAFAE3"/><stop offset=".2" stop-color="#FFFFA2"/><stop offset=".7" stop-color="#FFEF06"/><stop offset="1" stop-color="#C7B300"/></radialGradient><radialGradient id="c" cx="0" cy="0" r="1" gradientUnits="userSpaceOnUse" gradientTransform="rotate(74.1 13 22.2) scale(9.97372 6.07109)"><stop stop-color="#FFFFA2"/><stop offset=".5" stop-color="#FFEF06"/><stop offset="1" stop-color="#C7B300"/></radialGradient><radialGradient id="e" cx="0" cy="0" r="1" gradientUnits="userSpaceOnUse" gradientTransform="rotate(43.5 7.4 44.7) scale(2.34311 2.70142)"><stop stop-color="#F7F7BF"/><stop offset=".2" stop-color="#FFFFA2"/><stop offset=".7" stop-color="#FFEF06"/><stop offset="1" stop-color="#C7B300"/></radialGradient><radialGradient id="g" cx="0" cy="0" r="1" gradientUnits="userSpaceOnUse" gradientTransform="matrix(1.85748 1.6125 -1.84322 2.12324 33 9.5)"><stop stop-color="#F7F7BF"/><stop offset=".2" stop-color="#FFFFA2"/><stop offset=".7" stop-color="#FFEF06"/><stop offset="1" stop-color="#C7B300"/></radialGradient><radialGradient id="i" cx="0" cy="0" r="1" gradientUnits="userSpaceOnUse" gradientTransform="matrix(1.63671 1.40218 -1.59968 1.86726 31.8 14.1)"><stop stop-color="#F7F7BF"/><stop offset=".2" stop-color="#FFFFA2"/><stop offset=".7" stop-color="#FFEF06"/><stop offset="1" stop-color="#C7B300"/></radialGradient><radialGradient id="k" cx="0" cy="0" r="1" gradientUnits="userSpaceOnUse" gradientTransform="matrix(1.81084 1.40217 -1.5673 2.0241 32.6 11.9)"><stop stop-color="#F7F7BF"/><stop offset=".2" stop-color="#FFFFA2"/><stop offset=".7" stop-color="#FFEF06"/><stop offset="1" stop-color="#C7B300"/></radialGradient><radialGradient id="n" cx="0" cy="0" r="1" gradientUnits="userSpaceOnUse" gradientTransform="rotate(105.9 2.3 4.6) scale(9.97372 6.07109)"><stop stop-color="#FFFFA2"/><stop offset=".5" stop-color="#FFEF06"/><stop offset="1" stop-color="#C7B300"/></radialGradient><radialGradient id="p" cx="0" cy="0" r="1" gradientUnits="userSpaceOnUse" gradientTransform="matrix(-1.7 1.6125 -1.85909 -1.95996 5.2 7.2)"><stop stop-color="#F7F7BF"/><stop offset=".2" stop-color="#FFFFA2"/><stop offset=".7" stop-color="#FFEF06"/><stop offset="1" stop-color="#C7B300"/></radialGradient><radialGradient id="r" cx="0" cy="0" r="1" gradientUnits="userSpaceOnUse" gradientTransform="matrix(-1.8564 1.61374 -1.84463 -2.122 5 9.5)"><stop stop-color="#F7F7BF"/><stop offset=".2" stop-color="#FFFFA2"/><stop offset=".7" stop-color="#FFEF06"/><stop offset="1" stop-color="#C7B300"/></radialGradient><radialGradient id="t" cx="0" cy="0" r="1" gradientUnits="userSpaceOnUse" gradientTransform="matrix(-1.63639 1.40256 -1.60012 -1.86689 6.2 14.1)"><stop stop-color="#F7F7BF"/><stop offset=".2" stop-color="#FFFFA2"/><stop offset=".7" stop-color="#FFEF06"/><stop offset="1" stop-color="#C7B300"/></radialGradient><radialGradient id="v" cx="0" cy="0" r="1" gradientUnits="userSpaceOnUse" gradientTransform="matrix(-1.81085 1.40216 -1.5673 -2.02411 5.4 11.9)"><stop stop-color="#F7F7BF"/><stop offset=".2" stop-color="#FFFFA2"/><stop offset=".7" stop-color="#FFEF06"/><stop offset="1" stop-color="#C7B300"/></radialGradient><clipPath id="b"><path fill="#fff" transform="translate(27.8 .8)" d="M0 0h10v16H0z"/></clipPath><clipPath id="m"><path fill="#fff" transform="matrix(-1 0 0 1 10.3 .3)" d="M0 0h10v17H0z"/></clipPath></defs></svg>