<svg width="16" height="17" fill="none" xmlns="http://www.w3.org/2000/svg"><circle cx="8" cy="9" r="7.9" fill="url(#a)"/><circle cx="8" cy="9" r="7.63" stroke="#000" stroke-opacity=".9" stroke-width=".75"/><rect x="5.5" y="5.5" width="2" height="2" rx=".5" fill="#CF0F00"/><path d="M5.5 6c0-.27.22-.5.5-.5h1c.28 0 .5.23.5.5v.5h-2V6Z" fill="#830C00"/><rect x="9.5" y="5.5" width="2" height="2" rx=".5" fill="#CF0F00"/><path d="M9.5 6c0-.27.22-.5.5-.5h1c.28 0 .5.23.5.5v.5h-2V6Z" fill="#830C00"/><path d="M4.75 10h7s-1 3-3.5 3-3.5-3-3.5-3Z" fill="#fff"/><path fill-rule="evenodd" clip-rule="evenodd" d="M4.12 10.44H4l-.38.02v-.14a22.99 22.99 0 0 1 .02-1.03v-.13c.01-.08.03-.25.16-.39a.59.59 0 0 1 .48-.17c.15.01.32.05.52.12l-.24.71h.02l.98.2c1.15.25 2.36.25 2.68.25a13.77 13.77 0 0 0 3.65-.44l.04-.01.09-.26-.15-.45c.2-.07.36-.1.5-.12.15 0 .35.02.5.17.12.14.14.31.15.39v.13l.02.1a5.83 5.83 0 0 1 0 .94v.12h-.38l-.29-.02v.01l-.05.06-.29-.25.29.25-.01.01-.03.04a43.91 43.91 0 0 1-1.58 1.72l-.1.1c-.59.59-1.25 1.26-2.36 1.26-1.12 0-1.78-.67-2.37-1.26l-.1-.1-.99-1.03a8.58 8.58 0 0 1-.67-.8Zm.44-1.01-.03-.01h.03Zm.86.94-.48-.1.4.46c.3.32.66.7.97 1l.06.06c.63.63 1.08 1.09 1.88 1.09.8 0 1.24-.46 1.87-1.09l.06-.05a29.98 29.98 0 0 0 1.35-1.47l-.46.1c-1.23.26-2.5.26-2.82.26-.33 0-1.6 0-2.83-.26Z" fill="#000" fill-opacity=".9"/><path d="M11.9 3.77c.31-.25.76-.38 1-.7.1-.16.22-.37.35-.67.47-1.08.75-1.54.75-1.54l-.22 2.79c-.02.23-.08.46-.2.67-.37.7-1.35 2.24-2.1 1.17-.53-.75-.03-1.37.42-1.72ZM4.85 3.77c-.31-.25-.76-.38-1-.7-.1-.16-.22-.37-.35-.67A14.52 14.52 0 0 0 2.75.86l.22 2.79c.02.23.08.46.2.67.37.7 1.35 2.24 2.1 1.17.53-.75.03-1.37-.42-1.72Z" fill="#000" fill-opacity=".9"/><g filter="url(#b)"><path d="m9.5 10.25.34 1.04h1.09l-.89.64.34 1.04-.88-.65-.88.65.34-1.04-.89-.64h1.1l.33-1.04Z" fill="#fff" fill-opacity=".75"/></g><defs><radialGradient id="a" cx="0" cy="0" r="1" gradientUnits="userSpaceOnUse" gradientTransform="rotate(59.99 -.15 5.9) scale(12.7918)"><stop stop-color="#FAFAE3"/><stop offset=".23" stop-color="#FFFFA2"/><stop offset=".66" stop-color="#FFEF06"/><stop offset="1" stop-color="#C7B300"/></radialGradient><filter id="b" x="7.82" y="10" width="3.35" height="3.21" filterUnits="userSpaceOnUse" color-interpolation-filters="sRGB"><feFlood flood-opacity="0" result="BackgroundImageFix"/><feBlend mode="normal" in="SourceGraphic" in2="BackgroundImageFix" result="shape"/><feGaussianBlur stdDeviation=".13" result="effect1_foregroundBlur_232_2722"/></filter></defs></svg>