<svg width="16" height="16" fill="none" xmlns="http://www.w3.org/2000/svg"><circle cx="8" cy="8" r="7.9" fill="url(#a)"/><circle cx="8" cy="8" r="7.63" stroke="#000" stroke-opacity=".9" stroke-width=".75"/><circle cx="8" cy="7.75" r="3.5" fill="url(#b)"/><circle cx="8" cy="7.75" r="3.5" fill="url(#c)"/><g filter="url(#d)"><circle cx="8" cy="7.25" r="1.75" fill="#C40228"/></g><path d="M12.75 8c-.3 2.77-2.31 4.5-4.75 4.5M3.25 8c.3 2.77 2.31 4.5 4.75 4.5" stroke="#000" stroke-opacity=".9" stroke-width="1.1"/><path fill="#D9D9D9" d="M5 2.5h1V7H5z"/><path stroke="#000" stroke-opacity=".9" stroke-width=".5" d="M5.25 2.75h.5v4h-.5z"/><path fill="#D9D9D9" d="M3 5.5v-1h4v1z"/><path stroke="#000" stroke-opacity=".9" stroke-width=".5" d="M3.25 5.25v-.5h3.5v.5z"/><path fill="#D9D9D9" d="M10 2.5h1V7h-1z"/><path stroke="#000" stroke-opacity=".9" stroke-width=".5" d="M10.25 2.75h.5v4h-.5z"/><path fill="#D9D9D9" d="M9 5.5v-1h4v1z"/><path stroke="#000" stroke-opacity=".9" stroke-width=".5" d="M9.25 5.25v-.5h3.5v.5z"/><defs><radialGradient id="a" cx="0" cy="0" r="1" gradientUnits="userSpaceOnUse" gradientTransform="rotate(59.99 .72 5.4) scale(12.7918)"><stop stop-color="#fff"/><stop offset=".23" stop-color="#F0EDEE"/><stop offset=".66" stop-color="#DCD9DA"/><stop offset="1" stop-color="#AFACAD"/></radialGradient><radialGradient id="b" cx="0" cy="0" r="1" gradientUnits="userSpaceOnUse" gradientTransform="matrix(0 3.5 -3.5 0 8 7.75)"><stop stop-color="#FF2C55" stop-opacity=".7"/><stop offset=".71" stop-color="#F59FB0" stop-opacity=".5"/><stop offset="1" stop-color="#E9B1BC" stop-opacity="0"/></radialGradient><radialGradient id="c" cx="0" cy="0" r="1" gradientUnits="userSpaceOnUse" gradientTransform="matrix(0 3.5 -3.5 0 8 7.75)"><stop stop-color="#FF2C55" stop-opacity=".7"/><stop offset=".23" stop-color="#FC5273" stop-opacity=".85"/><stop offset=".71" stop-color="#F59FB0" stop-opacity=".5"/><stop offset="1" stop-color="#E9B1BC" stop-opacity="0"/></radialGradient><filter id="d" x="6" y="5.25" width="4" height="4" filterUnits="userSpaceOnUse" color-interpolation-filters="sRGB"><feFlood flood-opacity="0" result="BackgroundImageFix"/><feBlend mode="normal" in="SourceGraphic" in2="BackgroundImageFix" result="shape"/><feGaussianBlur stdDeviation=".13" result="effect1_foregroundBlur_232_2714"/></filter></defs></svg>