<svg width="17" height="17" fill="none" xmlns="http://www.w3.org/2000/svg"><circle cx="8" cy="9" r="7.9" fill="url(#a)"/><circle cx="8" cy="9" r="7.63" stroke="#000" stroke-opacity=".9" stroke-width=".75"/><rect x="5.5" y="6" width="2" height="2" rx=".5" fill="#000" fill-opacity=".9"/><rect x="9.5" y="6" width="2" height="2" rx=".5" fill="#000" fill-opacity=".9"/><path d="M3.5 9.5H13s.6 1.13-.5 1.5c-1.1.38-2.9.5-4 .5-.97 0-4 0-4.5-.5s-.5-1.5-.5-1.5Z" fill="#fff"/><path opacity=".2" d="M12.73 9.33c.52-.59.54-.31.77-.02.13.18.5.87.5.87" stroke="#000" stroke-opacity=".9" stroke-width=".75"/><path d="M13.25 9.15v.6C12.5 10.5 13 10.5 11 11s-4.5.5-5.25.5-2.25-.4-2.25-1.75v-.6" stroke="#000" stroke-opacity=".9" stroke-width=".75"/><path d="M9.5 9.52H12l4 2.98-1.58 2.19L8.3 9.52H9.5Z" fill="#7A0300"/><path d="M16.02 13.4c0 .65-.47 1.13-1 1.13-.52 0-1-.48-1-1.13 0-.65.48-1.12 1-1.12.53 0 1 .47 1 1.12Z" fill="#F6F5F5" stroke="#000" stroke-width=".75"/><path d="M13.5 9.5H8.25M3.25 9.5H8.5" stroke="#000" stroke-opacity=".9" stroke-width=".75"/><path opacity=".33" d="M3.6 8.8c-.68-.18-.78.2-.86.5-.17.6-.24 1.03-.24 1.03" stroke="#000" stroke-opacity=".9" stroke-width=".75"/><path d="M5.6 1.77c.86-.16 1.74-.2 2.6-.23 2.15-.06 4.16-.15 5.3 1.06 2.14 2.27 2 3.9 2 3.9s-.59.8-1.25.57c-.66-.23-.21-2.8-1.25-3.07-4-1-8-.5-9.5 0-1.11.37-.75 1.5-1.25 2.5S.5 7.07.5 7.07s-1.1-1.25 1-3.32a7.75 7.75 0 0 1 4.1-1.98Z" fill="url(#b)"/><path d="M7.54.75c1.58 0 3 .03 4.5.82 1.5.79 1.5 1.43 1.5 1.43v1c-.04.5-1.04.63-2.04.25-2.03-.76-5.5-.5-6.96 0-.94.32-2 1.75-2.5.25s0-1 .5-2S5.97.75 7.54.75Z" fill="url(#c)"/><defs><linearGradient id="b" x1="7.86" y1="1.48" x2="7.86" y2="7.16" gradientUnits="userSpaceOnUse"><stop stop-color="#EFEFEF"/><stop offset="1" stop-color="#DFDEDE"/></linearGradient><linearGradient id="c" x1="7.5" y1="2.5" x2="9.5" y2="9" gradientUnits="userSpaceOnUse"><stop stop-color="#D9D9D9"/><stop offset="1" stop-color="#696464"/></linearGradient><radialGradient id="a" cx="0" cy="0" r="1" gradientUnits="userSpaceOnUse" gradientTransform="rotate(59.99 -.15 5.9) scale(12.7918)"><stop stop-color="#FAFAE3"/><stop offset=".23" stop-color="#FFFFA2"/><stop offset=".66" stop-color="#FFEF06"/><stop offset="1" stop-color="#C7B300"/></radialGradient></defs></svg>