<svg width="16" height="16" fill="none" xmlns="http://www.w3.org/2000/svg"><circle cx="8" cy="8" r="7.9" fill="url(#a)"/><circle cx="8" cy="8" r="7.63" stroke="#000" stroke-opacity=".9" stroke-width=".75"/><rect x="5" y="4.5" width="2" height="2" rx=".5" fill="#000" fill-opacity=".9"/><rect x="9" y="4.5" width="2" height="2" rx=".5" fill="#000" fill-opacity=".9"/><path d="m9.5 10.5 3.5-3 .68 2.37a2 2 0 0 1-.51 1.96l-.46.46a1 1 0 0 1-1.42 0L9.5 10.5Z" fill="#CF0F00"/><path d="M12.5 7.5c-.1.75-.8 2.05-2.17 2.5-.75.25-1.33.25-2.33.25M3.5 7.5c.1.75.8 2.05 2.17 2.5.75.25 1.33.25 2.33.25" stroke="#000" stroke-opacity=".9" stroke-width="1.1"/><defs><radialGradient id="a" cx="0" cy="0" r="1" gradientUnits="userSpaceOnUse" gradientTransform="rotate(59.99 .72 5.4) scale(12.7918)"><stop stop-color="#FAFAE3"/><stop offset=".23" stop-color="#FFFFA2"/><stop offset=".66" stop-color="#FFEF06"/><stop offset="1" stop-color="#C7B300"/></radialGradient></defs></svg>