<svg width="25" height="22" fill="none" xmlns="http://www.w3.org/2000/svg"><g clip-path="url(#a)"><path d="M11.16.35c3.88-.99 12.43-.04 12.43 5 0 2.5-3.94 2.27-8.04 2.27-2.75 0-4.73 0-6.17-.05l-.26 2s-.62 2.66-3.56 3.12c-1.14.17-5.97.1-5.97.1s6.16-1.3 5.16-3.35c-2.3-4.72 1.86-7.93 6.4-9.1Z" fill="url(#b)"/><circle cx="17" cy="11" r="7.9" fill="url(#c)"/><circle cx="17" cy="11" r="7.63" stroke="#000" stroke-opacity=".9" stroke-width=".75"/><rect x="14.5" y="7" width="2" height="2" rx=".5" fill="#000" fill-opacity=".9"/><rect x="18.5" y="7" width="2" height="2" rx=".5" fill="#000" fill-opacity=".9"/><mask id="f" fill="#fff"><path d="M22.5 12.15c0-.62-.36-1.3-.83-.62-2.17 2.06-3.17 1.91-4.67 1.91s-2.55.17-4-1.9c-.47-.68-1.5 0-1.5 1.9 0 1.91-1.83 0-1.83 0-.67 1.91.66 2.86.66 2.86 0 2.87 2 2.87 2 2.87 0 2.86 2.67 1.9 2.67 1.9.67.96 2 .96 2 .96s1.33 0 2-.95c0 0 2.67.95 2.67-1.91 0 0 2 0 2-2.87 0 0 1.33-.95.66-2.86 0 0-1.83.62-1.83-1.3Z"/></mask><path d="M22.5 12.15c0-.62-.36-1.3-.83-.62-2.17 2.06-3.17 1.91-4.67 1.91s-2.55.17-4-1.9c-.47-.68-1.5 0-1.5 1.9 0 1.91-1.83 0-1.83 0-.67 1.91.66 2.86.66 2.86 0 2.87 2 2.87 2 2.87 0 2.86 2.67 1.9 2.67 1.9.67.96 2 .96 2 .96s1.33 0 2-.95c0 0 2.67.95 2.67-1.91 0 0 2 0 2-2.87 0 0 1.33-.95.66-2.86 0 0-1.83.62-1.83-1.3Z" fill="url(#d)" stroke="url(#e)" stroke-opacity=".8" stroke-width="1.4" mask="url(#f)"/><path d="M21.75 11c-.1.75-.8 2.05-2.17 2.5-.75.25-1.33.25-2.33.25M12.75 11c.1.75.8 2.05 2.17 2.5.75.25 1.33.25 2.33.25" stroke="#000" stroke-opacity=".9" stroke-width="1.1"/><mask id="g" fill="#fff"><path d="M9 5.5c-.32.95-.75 4 .75 4 .71 0 1.57-1.38 2.69-2.38A7.54 7.54 0 0 1 17 5.25c2.82 0 6.5 2.25 6.5 2.25.6 0 1.5-.9 1.5-1.5 0-.75-.2-1.8-1.1-2.65A11.6 11.6 0 0 0 16.5.5c-3.3 0-4.72 1.23-4.96 1.46l-.08.08c-.27.27-2 2.08-2.46 3.46Z"/></mask><path d="M9 5.5c-.32.95-.75 4 .75 4 .71 0 1.57-1.38 2.69-2.38A7.54 7.54 0 0 1 17 5.25c2.82 0 6.5 2.25 6.5 2.25.6 0 1.5-.9 1.5-1.5 0-.75-.2-1.8-1.1-2.65A11.6 11.6 0 0 0 16.5.5c-3.3 0-4.72 1.23-4.96 1.46l-.08.08c-.27.27-2 2.08-2.46 3.46Z" fill="#fff" stroke="#1D051C" stroke-opacity=".2" stroke-width="1.4" mask="url(#g)"/><mask id="h" fill="#fff"><path d="M2 14.5a2 2 0 1 1 0-4 2 2 0 0 1 0 4Z"/></mask><path d="M2 14.5a2 2 0 1 1 0-4 2 2 0 0 1 0 4Z" fill="#fff" stroke="#2E0A2F" stroke-opacity=".3" stroke-width="1.4" mask="url(#h)"/><rect x="14" y="15" width="1" height="1" rx=".25" fill="#FFFBC8"/><rect x="16" y="16" width="1" height="1" rx=".25" fill="#FFFBC8"/><rect x="14" y="17" width="1" height="1" rx=".25" fill="#FFFBC8"/><rect x="16" y="18" width="1" height="1" rx=".25" fill="#6EEAE4"/><rect x="18" y="15" width="1" height="1" rx=".25" fill="#FFFBC8"/><rect x="18" y="17" width="1" height="1" rx=".25" fill="#FFFBC8"/><rect x="20" y="15" width="1" height="1" rx=".25" fill="#FFFBC8"/><rect x="18" y="19" width="1" height="1" rx=".25" fill="#FFFBC8"/><rect x="14" y="2" width="1" height="1" rx=".25" fill="#FFFBC8"/><rect x="12" y="4" width="1" height="1" rx=".25" fill="#FD87DC" fill-opacity=".5"/><rect x="18" y="2" width="1" height="1" rx=".25" fill="#FFFBC8"/><rect x="16" y="3" width="1" height="1" rx=".25" fill="#FFFBC8"/><rect x="20" y="3" width="1" height="1" rx=".25" fill="#FFFBC8"/></g><defs><linearGradient id="b" x1="13.3" y1="0" x2="17.96" y2="9.2" gradientUnits="userSpaceOnUse"><stop stop-color="#FF0E28"/><stop offset="1" stop-color="#DF001B"/></linearGradient><linearGradient id="d" x1="17" y1="11.25" x2="17" y2="22.03" gradientUnits="userSpaceOnUse"><stop offset=".61" stop-color="#fff"/><stop offset="1" stop-color="#EBE9E1"/></linearGradient><linearGradient id="e" x1="17" y1="11.25" x2="17" y2="22.03" gradientUnits="userSpaceOnUse"><stop stop-color="#28061C" stop-opacity=".1"/><stop offset=".43" stop-color="#1F0316" stop-opacity=".5"/><stop offset="1" stop-color="#300521" stop-opacity=".6"/></linearGradient><radialGradient id="c" cx="0" cy="0" r="1" gradientUnits="userSpaceOnUse" gradientTransform="rotate(59.99 2.62 14.7) scale(12.7918)"><stop stop-color="#FAFAE3"/><stop offset=".23" stop-color="#FFFFA2"/><stop offset=".66" stop-color="#FFEF06"/><stop offset="1" stop-color="#C7B300"/></radialGradient><clipPath id="a"><path fill="#fff" d="M0 0h25v22H0z"/></clipPath></defs></svg>