<svg width="16" height="16" fill="none" xmlns="http://www.w3.org/2000/svg"><circle cx="8" cy="8" r="7.9" fill="url(#a)"/><circle cx="8" cy="8" r="7.63" stroke="#000" stroke-opacity=".9" stroke-width=".75"/><path fill="#000" d="M3 5.5h10v1H3z"/><path d="M11.6 7c0 .55-.54 1.1-1.35 1.1-.8 0-1.35-.55-1.35-1.1s.54-1.1 1.35-1.1c.8 0 1.35.55 1.35 1.1Z" fill="#fff" stroke="url(#b)" stroke-width=".8"/><path d="M7.1 7c0 .55-.54 1.1-1.35 1.1-.8 0-1.35-.55-1.35-1.1s.54-1.1 1.35-1.1c.8 0 1.35.55 1.35 1.1Z" fill="#fff" stroke="url(#c)" stroke-width=".8"/><rect x="5.5" y="12" width="5" height="1" rx=".5" fill="#D9D9D9"/><rect x="5.75" y="12.25" width="4.5" height=".5" rx=".25" stroke="#000" stroke-opacity=".9" stroke-width=".5"/><defs><linearGradient id="b" x1="10.25" y1="5.5" x2="10.25" y2="8.5" gradientUnits="userSpaceOnUse"><stop/><stop offset="1" stop-color="#5B5202"/></linearGradient><linearGradient id="c" x1="5.75" y1="5.5" x2="5.75" y2="8.5" gradientUnits="userSpaceOnUse"><stop/><stop offset="1" stop-color="#5B5202"/></linearGradient><radialGradient id="a" cx="0" cy="0" r="1" gradientUnits="userSpaceOnUse" gradientTransform="rotate(59.99 .72 5.4) scale(12.7918)"><stop stop-color="#FAFAE3"/><stop offset=".23" stop-color="#FFFFA2"/><stop offset=".66" stop-color="#FFEF06"/><stop offset="1" stop-color="#C7B300"/></radialGradient></defs></svg>