<svg width="16" height="19" fill="none" xmlns="http://www.w3.org/2000/svg"><path fill="#000" fill-opacity=".9" d="M2 2h1v3H2zM4 1h1v3H4zM6 .25h1v3H6zM8 0h1v3H8zM10 .25h1v3h-1zM12 1h1v3h-1zM14 2h1v4h-1z"/><circle cx="8" cy="10" r="7.9" fill="url(#a)"/><circle cx="8" cy="10" r="7.63" stroke="#000" stroke-opacity=".9" stroke-width=".75"/><g filter="url(#b)"><ellipse cx="13.5" cy="11.5" rx="1.5" ry="1.75" fill="#EE5600" fill-opacity=".2"/></g><g filter="url(#c)"><ellipse cx="3" cy="11.5" rx="1.5" ry="1.75" fill="#EE5600" fill-opacity=".2"/></g><g opacity=".9"><mask id="d" fill="#fff"><path fill-rule="evenodd" clip-rule="evenodd" d="M1 7h6.25c.14 0 .25.11.25.25V8h1v-.75c0-.14.11-.25.25-.25H15v1h-2v1.75c0 .14-.11.25-.25.25h-4a.25.25 0 0 1-.25-.25V9h-1v.75c0 .14-.11.25-.25.25h-4A.25.25 0 0 1 3 9.75V8H1V7Zm3 1v1h2.5V8H4Zm5.5 0H12v1H9.5V8Z"/></mask><path d="M1 7V6H0v1h1Zm6.5 1h-1v1h1V8Zm1 0v1h1V8h-1ZM15 7h1V6h-1v1Zm0 1v1h1V8h-1Zm-2 0V7h-1v1h1ZM8.5 9h1V8h-1v1Zm-1 0V8h-1v1h1ZM3 8h1V7H3v1ZM1 8H0v1h1V8Zm3 0V7H3v1h1Zm0 1H3v1h1V9Zm2.5 0v1h1V9h-1Zm0-1h1V7h-1v1ZM12 8h1V7h-1v1ZM9.5 8V7h-1v1h1ZM12 9v1h1V9h-1ZM9.5 9h-1v1h1V9ZM3.25 6H1v2h2.25V6ZM4 6h-.75v2H4V6Zm3.25 0H4v2h3.25V6ZM8.5 7.25C8.5 6.56 7.94 6 7.25 6v2a.75.75 0 0 1-.75-.75h2Zm0 .75v-.75h-2V8h2Zm0-1h-1v2h1V7Zm-1 .25V8h2v-.75h-2ZM8.75 6c-.69 0-1.25.56-1.25 1.25h2c0 .42-.34.75-.75.75V6ZM12 6H8.75v2H12V6Zm.75 0H12v2h.75V6ZM15 6h-2.25v2H15V6Zm1 2V7h-2v1h2Zm-3 1h2V7h-2v2Zm1 .75V8h-2v1.75h2ZM12.75 11c.69 0 1.25-.56 1.25-1.25h-2c0-.41.34-.75.75-.75v2Zm-4 0h4V9h-4v2ZM7.5 9.75c0 .7.56 1.25 1.25 1.25V9c.41 0 .75.34.75.75h-2Zm0-.75v.75h2V9h-2Zm0 1h1V8h-1v2Zm1-.25V9h-2v.75h2ZM7.25 11c.69 0 1.25-.56 1.25-1.25h-2c0-.41.34-.75.75-.75v2Zm-4 0h4V9h-4v2ZM2 9.75c0 .7.56 1.25 1.25 1.25V9c.41 0 .75.34.75.75H2ZM2 8v1.75h2V8H2ZM1 9h2V7H1v2ZM0 7v1h2V7H0Zm3 1v1h2V8H3Zm1 2h2.5V8H4v2Zm3.5-1V8h-2v1h2Zm-1-2H4v2h2.5V7ZM12 7H9.5v2H12V7Zm1 2V8h-2v1h2Zm-3.5 1H12V8H9.5v2Zm-1-2v1h2V8h-2Z" fill="#000" mask="url(#d)"/></g><path d="M8 12h2.91a1 1 0 0 1 1 1.08l-.06.66a4 4 0 0 1-.9 2.23l-.45.53-.18.9A2 2 0 0 1 8.36 19H8v-7ZM8 12H5.09a1 1 0 0 0-1 1.08l.06.66a4 4 0 0 0 .9 2.23l.45.53.18.9A2 2 0 0 0 7.64 19H8v-7Z" fill="#000"/><path fill-rule="evenodd" clip-rule="evenodd" d="M8.75 13.75c0-.14.11-.25.25-.25h.5c.14 0 .25.11.25.25v1c0 .14-.11.25-.25.25h-3a.25.25 0 0 1-.25-.25v-1c0-.14.11-.25.25-.25H7c.14 0 .25.11.25.25V14h1.5v-.25Z" fill="#fff"/><defs><filter id="b" x="11" y="8.75" width="5" height="5.5" filterUnits="userSpaceOnUse" color-interpolation-filters="sRGB"><feFlood flood-opacity="0" result="BackgroundImageFix"/><feBlend mode="normal" in="SourceGraphic" in2="BackgroundImageFix" result="shape"/><feGaussianBlur stdDeviation=".5" result="effect1_foregroundBlur_232_2703"/></filter><filter id="c" x=".5" y="8.75" width="5" height="5.5" filterUnits="userSpaceOnUse" color-interpolation-filters="sRGB"><feFlood flood-opacity="0" result="BackgroundImageFix"/><feBlend mode="normal" in="SourceGraphic" in2="BackgroundImageFix" result="shape"/><feGaussianBlur stdDeviation=".5" result="effect1_foregroundBlur_232_2703"/></filter><radialGradient id="a" cx="0" cy="0" r="1" gradientUnits="userSpaceOnUse" gradientTransform="rotate(59.99 -1.01 6.4) scale(12.7918)"><stop stop-color="#FAFAE3"/><stop offset=".23" stop-color="#FFFFA2"/><stop offset=".66" stop-color="#FFEF06"/><stop offset="1" stop-color="#C7B300"/></radialGradient></defs></svg>